# Blender 3.3.2
# www.blender.org
mtllib Revolver.mtl
o Revolver
v 0.163578 0.482984 -0.233669
v 0.103450 -0.680379 -0.374561
v 0.233669 0.482984 0.233669
v 0.158923 -0.680379 -0.056714
v -0.163578 0.482984 -0.233669
v -0.103450 -0.680379 -0.374561
v -0.233669 0.482984 0.233669
v -0.158923 -0.680379 -0.056714
v 0.304513 0.806562 1.079653
v 0.185385 0.499703 -0.280196
v 0.304513 0.197537 1.079653
v 0.178067 0.228797 -0.280196
v -0.304513 0.806562 1.079653
v -0.185385 0.499703 -0.280196
v -0.304513 0.197537 1.079653
v -0.178067 0.228797 -0.280196
v 0.278698 0.775303 -0.059945
v -0.273253 0.228797 -0.059945
v 0.273253 0.228797 -0.059945
v -0.278698 0.775303 -0.059945
v -0.000000 0.065628 0.567329
v -0.306024 0.192388 0.567329
v -0.432784 0.498412 0.567329
v -0.306024 0.804436 0.567329
v -0.000000 0.931195 0.567329
v 0.306024 0.804436 0.567329
v 0.432784 0.498412 0.567329
v 0.306024 0.192388 0.567329
v -0.000000 0.065628 0.259278
v -0.306024 0.192388 0.259278
v -0.432784 0.498412 0.259278
v -0.306024 0.804436 0.259278
v -0.000000 0.931195 0.259278
v 0.306024 0.804436 0.259278
v 0.432784 0.498412 0.259278
v 0.306024 0.192388 0.259278
v 0.000000 0.498412 0.567329
v 0.000000 0.498412 0.259278
v -0.234592 0.267457 0.264616
v -0.234592 0.267457 0.524848
v 0.234592 0.736642 0.524848
v 0.234592 0.736642 0.264616
v 0.234592 0.267457 0.524848
v 0.234592 0.267457 0.264616
v -0.234592 0.736642 0.524848
v -0.234592 0.736642 0.264616
v 0.304513 0.197537 1.306771
v -0.304513 0.197537 1.306771
v 0.304513 0.806562 1.306771
v -0.304513 0.806562 1.306771
vn -0.0000 1.0000 -0.0000
vn -0.0000 -0.2422 0.9702
vn -0.9871 -0.0280 -0.1578
vn -0.0000 -1.0000 -0.0000
vn 0.9871 -0.0280 -0.1578
vn -0.0000 0.1202 -0.9927
vn -1.0000 -0.0000 -0.0000
vn -0.0000 -0.9922 -0.1250
vn -0.9922 -0.0000 -0.1250
vn -0.0000 -0.0000 -1.0000
vn 0.9922 -0.0000 -0.1250
vn -0.0000 0.9922 -0.1250
vn -0.0000 0.6243 -0.7812
vn 0.9225 -0.0144 -0.3857
vn -0.9225 -0.0144 -0.3857
vn -0.9239 -0.3827 -0.0000
vn 0.9239 -0.3827 -0.0000
vn 0.3827 0.9239 -0.0000
vn -0.9239 0.3827 -0.0000
vn -0.3827 -0.9239 -0.0000
vn 0.3827 -0.9239 -0.0000
vn 0.9239 0.3827 -0.0000
vn -0.3827 0.9239 -0.0000
vn -0.0000 -0.0000 1.0000
vn -0.0000 0.9930 0.1183
vn 0.9920 -0.0053 0.1265
vn 1.0000 -0.0000 -0.0000
vn -0.9920 -0.0053 0.1265
vn -0.0000 -0.9930 0.1183
vt 0.625000 0.500000
vt 0.375000 0.500000
vt 0.625000 0.750000
vt 0.375000 0.750000
vt 0.875000 0.500000
vt 0.625000 0.250000
vt 0.125000 0.500000
vt 0.375000 0.250000
vt 0.875000 0.750000
vt 0.625000 1.000000
vt 0.625000 0.000000
vt 0.375000 1.000000
vt 0.375000 0.000000
vt 0.125000 0.750000
vt 0.625000 0.500000
vt 0.375000 0.500000
vt 0.625000 0.750000
vt 0.375000 0.750000
vt 0.625000 0.250000
vt 0.125000 0.500000
vt 0.375000 0.250000
vt 0.625000 0.000000
vt 0.625000 1.000000
vt 0.125000 0.750000
vt 0.375000 0.000000
vt 0.375000 1.000000
vt 0.423745 0.500000
vt 0.423745 0.000000
vt 0.423745 1.000000
vt 0.423745 0.750000
vt 0.423745 0.250000
vt 0.000000 0.000000
vt 0.000000 0.000000
vt 0.000000 0.000000
vt 0.000000 0.000000
vt 0.000000 0.000000
vt 0.000000 0.000000
vt 0.000000 0.000000
vt 0.000000 0.000000
vt 0.000000 0.000000
vt 0.000000 0.000000
vt 0.000000 0.000000
vt 0.000000 0.000000
vt 0.000000 0.000000
vt 0.000000 0.000000
vt 0.000000 0.000000
vt 0.000000 0.000000
vt 0.000000 0.000000
vt 0.000000 0.000000
vt 0.490830 0.000000
vt 0.490830 1.000000
vt 0.557915 0.000000
vt 0.557915 1.000000
vt 0.557915 0.500000
vt 0.490830 0.500000
vt 0.557915 0.750000
vt 0.490830 0.750000
vt 0.557915 0.250000
vt 0.490830 0.250000
vt 0.625000 0.750000
vt 0.625000 0.000000
vt 0.875000 0.750000
vt 0.625000 1.000000
vt 0.625000 0.500000
vt 0.875000 0.500000
vt 0.625000 0.250000
s 0
usemtl Material
f 1/1/1 5/5/1 7/9/1 3/3/1
f 4/4/2 3/3/2 7/10/2 8/12/2
f 8/13/3 7/11/3 5/6/3 6/8/3
f 6/7/4 2/2/4 4/4/4 8/14/4
f 2/2/5 1/1/5 3/3/5 4/4/5
f 6/8/6 5/6/6 1/1/6 2/2/6
f 13/19/7 15/22/7 48/61/7 50/66/7
f 43/56/8 11/17/8 15/23/8 40/53/8
f 40/52/9 15/22/9 13/19/9 45/58/9
f 14/20/10 10/16/10 12/18/10 16/24/10
f 41/54/11 9/15/11 11/17/11 43/56/11
f 45/58/12 13/19/12 9/15/12 41/54/12
f 14/21/13 20/31/13 17/27/13 10/16/13
f 10/16/14 17/27/14 19/30/14 12/18/14
f 16/25/15 18/28/15 20/31/15 14/21/15
f 12/18/4 19/30/4 18/29/4 16/26/4
f 23/34/16 31/42/16 30/41/16 22/33/16
f 28/39/17 36/47/17 35/46/17 27/38/17
f 26/37/18 34/45/18 33/44/18 25/36/18
f 24/35/19 32/43/19 31/42/19 23/34/19
f 22/33/20 30/41/20 29/40/20 21/32/20
f 21/32/21 29/40/21 36/47/21 28/39/21
f 27/38/22 35/46/22 34/45/22 26/37/22
f 25/36/23 33/44/23 32/43/23 24/35/23
f 30/41/10 31/42/10 38/49/10
f 24/35/24 23/34/24 37/48/24
f 31/42/10 32/43/10 38/49/10
f 25/36/24 24/35/24 37/48/24
f 32/43/10 33/44/10 38/49/10
f 26/37/24 25/36/24 37/48/24
f 33/44/10 34/45/10 38/49/10
f 27/38/24 26/37/24 37/48/24
f 34/45/10 35/46/10 38/49/10
f 28/39/24 27/38/24 37/48/24
f 35/46/10 36/47/10 38/49/10
f 21/32/24 28/39/24 37/48/24
f 22/33/24 21/32/24 37/48/24
f 36/47/10 29/40/10 38/49/10
f 29/40/10 30/41/10 38/49/10
f 23/34/24 22/33/24 37/48/24
f 20/31/25 46/59/25 42/55/25 17/27/25
f 46/59/1 45/58/1 41/54/1 42/55/1
f 17/27/26 42/55/26 44/57/26 19/30/26
f 42/55/27 41/54/27 43/56/27 44/57/27
f 18/28/28 39/50/28 46/59/28 20/31/28
f 39/50/7 40/52/7 45/58/7 46/59/7
f 19/30/29 44/57/29 39/51/29 18/29/29
f 44/57/4 43/56/4 40/53/4 39/51/4
f 49/64/24 50/65/24 48/62/24 47/60/24
f 11/17/27 9/15/27 49/64/27 47/60/27
f 9/15/1 13/19/1 50/66/1 49/64/1
f 15/23/4 11/17/4 47/60/4 48/63/4
