# Blender 3.3.2
# www.blender.org
mtllib Riffle.mtl
o Riffle
v -0.147591 -0.498182 0.147591
v -0.195976 0.498182 0.195976
v -0.147591 -0.498182 -0.147591
v -0.195976 0.498182 -0.195976
v 0.147591 -0.498182 0.147591
v 0.195976 0.498182 0.195976
v 0.147591 -0.498182 -0.147591
v 0.195976 0.498182 -0.195976
v -0.177939 0.516464 1.709020
v -0.177939 0.872342 1.709020
v 0.177939 0.516464 1.709020
v 0.177939 0.872342 1.709020
v -0.233554 0.460849 0.644460
v -0.233554 0.460849 1.400514
v -0.233554 0.927957 1.400514
v -0.233554 0.927957 0.644460
v 0.233554 0.927957 1.400514
v 0.233554 0.927957 0.644460
v 0.233554 0.460849 1.400514
v 0.233554 0.460849 0.644460
v -0.257468 0.436935 0.644460
v -0.257468 0.436935 1.400514
v -0.257468 0.951871 1.400514
v -0.257468 0.951871 0.644460
v 0.257468 0.951871 1.400514
v 0.257468 0.951871 0.644460
v 0.257468 0.436935 1.400514
v 0.257468 0.436935 0.644460
v -0.137868 -0.155787 1.221226
v -0.195976 0.840578 1.279334
v -0.137868 -0.155787 0.945490
v -0.195976 0.840578 0.887381
v 0.137868 -0.155787 1.221226
v 0.195976 0.840578 1.279334
v 0.137868 -0.155787 0.945490
v 0.195976 0.840578 0.887381
v -0.233554 0.927957 -0.156038
v 0.233554 0.927957 -0.156038
v 0.233554 0.460849 -0.156038
v -0.233554 0.460849 -0.156038
v -0.233554 0.927957 -0.444704
v -0.233554 0.460849 -0.444704
v -0.233554 0.927957 -0.156038
v 0.233554 0.927957 -0.444704
v 0.233554 0.927957 -0.156038
v 0.233554 0.460849 -0.444704
v 0.233554 0.460849 -0.156038
v -0.233554 0.460849 -0.156038
v -0.261672 0.956075 -0.444704
v -0.261672 0.432731 -0.444704
v -0.261672 0.956075 -0.156038
v 0.261672 0.956075 -0.444704
v 0.261672 0.956075 -0.156038
v 0.261672 0.432731 -0.444704
v 0.261672 0.432731 -0.156038
v -0.261672 0.432731 -0.156038
v -0.233554 0.460849 1.709020
v -0.233554 0.927957 1.709020
v 0.233554 0.927957 1.709020
v 0.233554 0.460849 1.709020
v -0.149802 0.544601 2.237062
v -0.149802 0.844205 2.237062
v 0.149802 0.844205 2.237062
v 0.149802 0.544601 2.237062
vn -0.9988 -0.0485 -0.0000
vn -0.0000 -0.0485 -0.9988
vn 0.9988 -0.0485 -0.0000
vn -0.0000 -0.0485 0.9988
vn -0.0000 -1.0000 -0.0000
vn -0.0000 1.0000 -0.0000
vn -1.0000 -0.0000 -0.0000
vn 1.0000 -0.0000 -0.0000
vn -0.0000 -0.9986 0.0532
vn -0.0000 -0.0000 -1.0000
vn -0.0000 -0.0000 1.0000
vn -0.9983 -0.0582 -0.0000
vn -0.0000 -0.0582 -0.9983
vn 0.9983 -0.0582 -0.0000
vn -0.0000 -0.0582 0.9983
vn -0.0000 0.9986 0.0532
vn 0.9986 -0.0000 0.0532
vn -0.9986 -0.0000 0.0532
vt 0.375000 0.000000
vt 0.375000 1.000000
vt 0.125000 0.750000
vt 0.625000 0.000000
vt 0.625000 1.000000
vt 0.875000 0.750000
vt 0.375000 0.250000
vt 0.125000 0.500000
vt 0.625000 0.250000
vt 0.875000 0.500000
vt 0.375000 0.750000
vt 0.625000 0.750000
vt 0.375000 0.500000
vt 0.625000 0.500000
vt 0.845234 0.720234
vt 0.845234 0.529766
vt 0.654766 0.720234
vt 0.654766 0.529766
vt 0.458333 1.000000
vt 0.458333 0.000000
vt 0.541667 0.000000
vt 0.541667 1.000000
vt 0.541667 0.250000
vt 0.458333 0.250000
vt 0.541667 0.500000
vt 0.458333 0.500000
vt 0.541667 0.750000
vt 0.458333 0.750000
vt 0.458333 1.000000
vt 0.458333 0.000000
vt 0.541667 0.000000
vt 0.541667 1.000000
vt 0.541667 0.250000
vt 0.458333 0.250000
vt 0.541667 0.500000
vt 0.458333 0.500000
vt 0.541667 0.750000
vt 0.458333 0.750000
vt 0.375000 0.000000
vt 0.375000 1.000000
vt 0.125000 0.750000
vt 0.625000 0.000000
vt 0.625000 1.000000
vt 0.875000 0.750000
vt 0.375000 0.250000
vt 0.125000 0.500000
vt 0.625000 0.250000
vt 0.875000 0.500000
vt 0.375000 0.750000
vt 0.625000 0.750000
vt 0.375000 0.500000
vt 0.625000 0.500000
vt 0.397086 0.250000
vt 0.397086 0.500000
vt 0.397086 0.750000
vt 0.397086 1.000000
vt 0.397086 0.000000
vt 0.125000 0.500000
vt 0.125000 0.750000
vt 0.397086 0.250000
vt 0.375000 0.500000
vt 0.397086 0.500000
vt 0.375000 0.750000
vt 0.397086 0.750000
vt 0.397086 0.000000
vt 0.397086 1.000000
vt 0.375000 0.250000
vt 0.125000 0.500000
vt 0.375000 0.000000
vt 0.375000 1.000000
vt 0.125000 0.750000
vt 0.397086 0.250000
vt 0.375000 0.500000
vt 0.397086 0.500000
vt 0.375000 0.750000
vt 0.397086 0.750000
vt 0.397086 0.000000
vt 0.397086 1.000000
vt 0.625000 0.000000
vt 0.625000 1.000000
vt 0.875000 0.750000
vt 0.625000 0.250000
vt 0.875000 0.500000
vt 0.625000 0.500000
vt 0.625000 0.750000
vt 0.845234 0.720234
vt 0.845234 0.529766
vt 0.654766 0.529766
vt 0.654766 0.720234
s 0
f 1/1/1 2/4/1 4/9/1 3/7/1
f 3/7/2 4/9/2 8/14/2 7/13/2
f 7/13/3 8/14/3 6/12/3 5/11/3
f 5/11/4 6/12/4 2/5/4 1/2/4
f 3/8/5 7/13/5 5/11/5 1/3/5
f 8/14/6 4/10/6 2/6/6 6/12/6
f 14/21/7 57/79/7 58/82/7 15/23/7
f 15/23/6 58/82/6 59/84/6 17/25/6
f 17/25/8 59/84/8 60/85/8 19/27/8
f 19/27/5 60/85/5 57/80/5 14/22/5
f 9/15/9 11/17/9 64/89/9 61/86/9
f 39/55/5 20/28/5 13/19/5 40/56/5
f 13/19/10 20/28/10 28/38/10 21/29/10
f 38/54/8 18/26/8 20/28/8 39/55/8
f 20/28/10 18/26/10 26/36/10 28/38/10
f 37/53/6 16/24/6 18/26/6 38/54/6
f 18/26/10 16/24/10 24/34/10 26/36/10
f 40/57/7 13/20/7 16/24/7 37/53/7
f 16/24/10 13/20/10 21/30/10 24/34/10
f 28/38/5 27/37/5 22/32/5 21/29/5
f 26/36/8 25/35/8 27/37/8 28/38/8
f 24/34/6 23/33/6 25/35/6 26/36/6
f 21/30/7 22/31/7 23/33/7 24/34/7
f 14/21/11 15/23/11 23/33/11 22/31/11
f 15/23/11 17/25/11 25/35/11 23/33/11
f 17/25/11 19/27/11 27/37/11 25/35/11
f 19/27/11 14/22/11 22/32/11 27/37/11
f 29/39/12 30/42/12 32/47/12 31/45/12
f 31/45/13 32/47/13 36/52/13 35/51/13
f 35/51/14 36/52/14 34/50/14 33/49/14
f 33/49/15 34/50/15 30/43/15 29/40/15
f 31/46/5 35/51/5 33/49/5 29/41/5
f 36/52/6 32/48/6 30/44/6 34/50/6
f 37/53/6 38/54/6 45/62/6 43/60/6
f 39/55/6 40/56/6 48/66/6 47/64/6
f 40/57/6 37/53/6 43/60/6 48/65/6
f 38/54/6 39/55/6 47/64/6 45/62/6
f 41/58/10 44/61/10 46/63/10 42/59/10
f 44/61/10 41/58/10 49/68/10 52/73/10
f 46/63/10 44/61/10 52/73/10 54/75/10
f 42/59/10 46/63/10 54/75/10 50/71/10
f 48/65/11 43/60/11 51/72/11 56/77/11
f 50/69/7 56/77/7 51/72/7 49/67/7
f 49/67/6 51/72/6 53/74/6 52/73/6
f 52/73/8 53/74/8 55/76/8 54/75/8
f 54/75/5 55/76/5 56/78/5 50/70/5
f 47/64/11 48/66/11 56/78/11 55/76/11
f 41/58/10 42/59/10 50/71/10 49/68/10
f 43/60/11 45/62/11 53/74/11 51/72/11
f 45/62/11 47/64/11 55/76/11 53/74/11
f 9/15/11 10/16/11 58/83/11 57/81/11
f 10/16/11 12/18/11 59/84/11 58/83/11
f 12/18/11 11/17/11 60/85/11 59/84/11
f 11/17/11 9/15/11 57/81/11 60/85/11
f 63/88/11 62/87/11 61/86/11 64/89/11
f 12/18/16 10/16/16 62/87/16 63/88/16
f 11/17/17 12/18/17 63/88/17 64/89/17
f 10/16/18 9/15/18 61/86/18 62/87/18
