# Blender 3.3.2
# www.blender.org
mtllib Wheel.mtl
o wheel
v 0.000000 0.122112 -0.602174
v 0.000000 0.406840 -0.460442
v 0.000000 0.582554 -0.195335
v 0.000000 0.602174 0.122112
v 0.000000 0.460442 0.406840
v 0.000000 0.195335 0.582554
v 0.000000 -0.122112 0.602174
v 0.000000 -0.406840 0.460442
v 0.000000 -0.582554 0.195335
v 0.000000 -0.602174 -0.122112
v 0.000000 -0.460442 -0.406840
v 0.000000 -0.195335 -0.582554
v 0.220878 0.000000 -0.553880
v 0.220878 0.276940 -0.479674
v 0.220878 0.479674 -0.276940
v 0.220878 0.553880 0.000000
v 0.220878 0.479674 0.276940
v 0.220878 0.276940 0.479674
v 0.220878 0.000000 0.553880
v 0.220878 -0.276940 0.479674
v 0.220878 -0.479674 0.276940
v 0.220878 -0.553880 0.000000
v 0.220878 -0.479674 -0.276940
v 0.220878 -0.276940 -0.479674
v 0.135650 0.000000 -0.490005
v 0.135650 0.245003 -0.424357
v 0.135650 0.424357 -0.245002
v 0.135650 0.490005 0.000000
v 0.135650 0.424357 0.245002
v 0.135650 0.245003 0.424357
v 0.135650 0.000000 0.490005
v 0.135650 -0.245002 0.424357
v 0.135650 -0.424357 0.245002
v 0.135650 -0.490005 0.000000
v 0.135650 -0.424357 -0.245002
v 0.135650 -0.245002 -0.424357
v 0.256262 0.000000 -0.365965
v 0.256262 0.182983 -0.316935
v 0.256262 0.316935 -0.182983
v 0.256262 0.365965 0.000000
v 0.256262 0.316935 0.182983
v 0.256262 0.182983 0.316935
v 0.256262 0.000000 0.365965
v 0.256262 -0.182983 0.316935
v 0.256262 -0.316935 0.182983
v 0.256262 -0.365965 0.000000
v 0.256262 -0.316935 -0.182983
v 0.256262 -0.182983 -0.316935
v 0.256262 0.000000 -0.237632
v 0.256262 0.118816 -0.205795
v 0.256262 0.205795 -0.118816
v 0.256262 0.237632 0.000000
v 0.256262 0.205795 0.118816
v 0.256262 0.118816 0.205795
v 0.256262 0.000000 0.237632
v 0.256262 -0.118816 0.205795
v 0.256262 -0.205795 0.118816
v 0.256262 -0.237632 0.000000
v 0.256262 -0.205795 -0.118816
v 0.256262 -0.118816 -0.205795
v 0.572731 0.000000 -0.146520
v 0.572731 0.073260 -0.126890
v 0.572731 0.126890 -0.073260
v 0.572731 0.146520 0.000000
v 0.572731 0.126890 0.073260
v 0.572731 0.073260 0.126890
v 0.572731 0.000000 0.146520
v 0.572731 -0.073260 0.126890
v 0.572731 -0.126890 0.073260
v 0.572731 -0.146520 0.000000
v 0.572731 -0.126890 -0.073260
v 0.572731 -0.073260 -0.126890
v -0.220878 0.000000 -0.553880
v -0.220878 0.276940 -0.479674
v -0.220878 0.479674 -0.276940
v -0.220878 0.553880 0.000000
v -0.220878 0.479674 0.276940
v -0.220878 0.276940 0.479674
v -0.220878 0.000000 0.553880
v -0.220878 -0.276940 0.479674
v -0.220878 -0.479674 0.276940
v -0.220878 -0.553880 0.000000
v -0.220878 -0.479674 -0.276940
v -0.220878 -0.276940 -0.479674
v -0.135650 0.000000 -0.490005
v -0.135650 0.245003 -0.424357
v -0.135650 0.424357 -0.245002
v -0.135650 0.490005 0.000000
v -0.135650 0.424357 0.245002
v -0.135650 0.245003 0.424357
v -0.135650 0.000000 0.490005
v -0.135650 -0.245002 0.424357
v -0.135650 -0.424357 0.245002
v -0.135650 -0.490005 0.000000
v -0.135650 -0.424357 -0.245002
v -0.135650 -0.245002 -0.424357
v -0.256262 0.000000 -0.365965
v -0.256262 0.182983 -0.316935
v -0.256262 0.316935 -0.182983
v -0.256262 0.365965 0.000000
v -0.256262 0.316935 0.182983
v -0.256262 0.182983 0.316935
v -0.256262 0.000000 0.365965
v -0.256262 -0.182983 0.316935
v -0.256262 -0.316935 0.182983
v -0.256262 -0.365965 0.000000
v -0.256262 -0.316935 -0.182983
v -0.256262 -0.182983 -0.316935
v -0.256262 0.000000 -0.237632
v -0.256262 0.118816 -0.205795
v -0.256262 0.205795 -0.118816
v -0.256262 0.237632 0.000000
v -0.256262 0.205795 0.118816
v -0.256262 0.118816 0.205795
v -0.256262 0.000000 0.237632
v -0.256262 -0.118816 0.205795
v -0.256262 -0.205795 0.118816
v -0.256262 -0.237632 0.000000
v -0.256262 -0.205795 -0.118816
v -0.256262 -0.118816 -0.205795
v -0.572731 0.000000 -0.146520
v -0.572731 0.073260 -0.126890
v -0.572731 0.126890 -0.073260
v -0.572731 0.146520 0.000000
v -0.572731 0.126890 0.073260
v -0.572731 0.073260 0.126890
v -0.572731 0.000000 0.146520
v -0.572731 -0.073260 0.126890
v -0.572731 -0.126890 0.073260
v -0.572731 -0.146520 0.000000
v -0.572731 -0.126890 -0.073260
v -0.572731 -0.073260 -0.126890
vn 0.2572 -0.3468 0.9020
vn 0.2572 0.9020 0.3468
vn 0.2572 -0.6078 -0.7513
vn 0.2572 0.3468 -0.9020
vn 0.2572 -0.7513 0.6078
vn 0.2572 0.6078 0.7513
vn 0.2572 -0.1507 -0.9545
vn 0.2572 0.7513 -0.6078
vn 0.2572 -0.9545 0.1507
vn 0.2572 0.1507 0.9545
vn 0.2572 0.9545 -0.1507
vn 0.2572 -0.9020 -0.3468
vn 0.5864 -0.5728 0.5728
vn 0.5864 0.7824 -0.2097
vn 0.5864 -0.2097 -0.7824
vn 0.5864 -0.7824 0.2097
vn 0.5864 0.7824 0.2097
vn 0.5864 0.2097 -0.7824
vn 0.5864 -0.7824 -0.2097
vn 0.5864 0.5728 0.5728
vn 0.5864 -0.2097 0.7824
vn 0.5864 0.5728 -0.5728
vn 0.5864 -0.5728 -0.5728
vn 0.5864 0.2097 0.7824
vn 0.7048 -0.1836 -0.6853
vn 0.7048 0.5017 -0.5017
vn 0.7048 -0.6853 0.1836
vn 0.7048 0.1836 0.6853
vn 0.7048 0.6853 -0.1836
vn 0.7048 -0.6853 -0.1836
vn 0.7048 -0.1836 0.6853
vn 0.7048 0.6853 0.1836
vn 0.7048 -0.5017 -0.5017
vn 0.7048 0.1836 -0.6853
vn 0.7048 -0.5017 0.5017
vn 0.7048 0.5017 0.5017
vn 1.0000 -0.0000 -0.0000
vn 0.2679 0.6813 0.6813
vn 0.2679 -0.2494 -0.9306
vn 0.2679 0.6813 -0.6813
vn 0.2679 -0.9306 0.2494
vn 0.2679 0.2494 0.9306
vn 0.2679 0.9306 -0.2494
vn 0.2679 -0.9306 -0.2494
vn 0.2679 -0.2494 0.9306
vn 0.2679 0.9306 0.2494
vn 0.2679 -0.6813 -0.6813
vn 0.2679 0.2494 -0.9306
vn 0.2679 -0.6813 0.6813
vn -0.2572 -0.3468 0.9020
vn -0.2572 0.9020 0.3468
vn -0.2572 -0.6078 -0.7513
vn -0.2572 0.3468 -0.9020
vn -0.2572 -0.7513 0.6078
vn -0.2572 0.6078 0.7513
vn -0.2572 -0.1507 -0.9545
vn -0.2572 0.7513 -0.6078
vn -0.2572 -0.9545 0.1507
vn -0.2572 0.1507 0.9545
vn -0.2572 0.9545 -0.1507
vn -0.2572 -0.9020 -0.3468
vn -0.5864 -0.5728 0.5728
vn -0.5864 0.7824 -0.2097
vn -0.5864 -0.2097 -0.7824
vn -0.5864 -0.7824 0.2097
vn -0.5864 0.7824 0.2097
vn -0.5864 0.2097 -0.7824
vn -0.5864 -0.7824 -0.2097
vn -0.5864 0.5728 0.5728
vn -0.5864 -0.2097 0.7824
vn -0.5864 0.5728 -0.5728
vn -0.5864 -0.5728 -0.5728
vn -0.5864 0.2097 0.7824
vn -0.7048 -0.1836 -0.6853
vn -0.7048 0.5017 -0.5017
vn -0.7048 -0.6853 0.1836
vn -0.7048 0.1836 0.6853
vn -0.7048 0.6853 -0.1836
vn -0.7048 -0.6853 -0.1836
vn -0.7048 -0.1836 0.6853
vn -0.7048 0.6853 0.1836
vn -0.7048 -0.5017 -0.5017
vn -0.7048 0.1836 -0.6853
vn -0.7048 -0.5017 0.5017
vn -0.7048 0.5017 0.5017
vn -1.0000 -0.0000 -0.0000
vn -0.2679 0.6813 0.6813
vn -0.2679 -0.2494 -0.9306
vn -0.2679 0.6813 -0.6813
vn -0.2679 -0.9306 0.2494
vn -0.2679 0.2494 0.9306
vn -0.2679 0.9306 -0.2494
vn -0.2679 -0.9306 -0.2494
vn -0.2679 -0.2494 0.9306
vn -0.2679 0.9306 0.2494
vn -0.2679 -0.6813 -0.6813
vn -0.2679 0.2494 -0.9306
vn -0.2679 -0.6813 0.6813
vt 0.000000 0.000000
vt 0.000000 0.000000
vt 0.000000 0.000000
vt 0.000000 0.000000
vt 0.000000 0.000000
vt 0.000000 0.000000
vt 0.000000 0.000000
vt 0.000000 0.000000
vt 0.000000 0.000000
vt 0.000000 0.000000
vt 0.000000 0.000000
vt 0.000000 0.000000
vt 0.000000 0.000000
vt 0.000000 0.000000
vt 0.000000 0.000000
vt 0.000000 0.000000
vt 0.000000 0.000000
vt 0.000000 0.000000
vt 0.000000 0.000000
vt 0.000000 0.000000
vt 0.000000 0.000000
vt 0.000000 0.000000
vt 0.000000 0.000000
vt 0.000000 0.000000
vt 0.000000 0.000000
vt 0.000000 0.000000
vt 0.000000 0.000000
vt 0.000000 0.000000
vt 0.000000 0.000000
vt 0.000000 0.000000
vt 0.000000 0.000000
vt 0.000000 0.000000
vt 0.000000 0.000000
vt 0.000000 0.000000
vt 0.000000 0.000000
vt 0.000000 0.000000
vt 0.000000 0.000000
vt 0.000000 0.000000
vt 0.000000 0.000000
vt 0.000000 0.000000
vt 0.000000 0.000000
vt 0.000000 0.000000
vt 0.000000 0.000000
vt 0.000000 0.000000
vt 0.000000 0.000000
vt 0.000000 0.000000
vt 0.000000 0.000000
vt 0.000000 0.000000
vt 0.000000 0.000000
vt 0.000000 0.000000
vt 0.000000 0.000000
vt 0.000000 0.000000
vt 0.000000 0.000000
vt 0.000000 0.000000
vt 0.000000 0.000000
vt 0.000000 0.000000
vt 0.000000 0.000000
vt 0.000000 0.000000
vt 0.000000 0.000000
vt 0.000000 0.000000
vt 0.000000 0.000000
vt 0.000000 0.000000
vt 0.000000 0.000000
vt 0.000000 0.000000
vt 0.000000 0.000000
vt 0.000000 0.000000
vt 0.000000 0.000000
vt 0.000000 0.000000
vt 0.000000 0.000000
vt 0.000000 0.000000
vt 0.000000 0.000000
vt 0.000000 0.000000
vt 0.000000 0.000000
vt 0.000000 0.000000
vt 0.000000 0.000000
vt 0.000000 0.000000
vt 0.000000 0.000000
vt 0.000000 0.000000
vt 0.000000 0.000000
vt 0.000000 0.000000
vt 0.000000 0.000000
vt 0.000000 0.000000
vt 0.000000 0.000000
vt 0.000000 0.000000
vt 0.000000 0.000000
vt 0.000000 0.000000
vt 0.000000 0.000000
vt 0.000000 0.000000
vt 0.000000 0.000000
vt 0.000000 0.000000
vt 0.000000 0.000000
vt 0.000000 0.000000
vt 0.000000 0.000000
vt 0.000000 0.000000
vt 0.000000 0.000000
vt 0.000000 0.000000
vt 0.000000 0.000000
vt 0.000000 0.000000
vt 0.000000 0.000000
vt 0.000000 0.000000
vt 0.000000 0.000000
vt 0.000000 0.000000
vt 0.000000 0.000000
vt 0.000000 0.000000
vt 0.000000 0.000000
vt 0.000000 0.000000
vt 0.000000 0.000000
vt 0.000000 0.000000
vt 0.000000 0.000000
vt 0.000000 0.000000
vt 0.000000 0.000000
vt 0.000000 0.000000
vt 0.000000 0.000000
vt 0.000000 0.000000
vt 0.000000 0.000000
vt 0.000000 0.000000
vt 0.000000 0.000000
vt 0.000000 0.000000
vt 0.000000 0.000000
vt 0.000000 0.000000
vt 0.000000 0.000000
vt 0.000000 0.000000
vt 0.000000 0.000000
vt 0.000000 0.000000
vt 0.000000 0.000000
vt 0.000000 0.000000
vt 0.000000 0.000000
vt 0.000000 0.000000
vt 0.000000 0.000000
vt 0.000000 0.000000
vt 0.000000 0.000000
vt 0.000000 0.000000
s 0
f 8/8/1 20/20/1 19/19/1 7/7/1
f 5/5/2 17/17/2 16/16/2 4/4/2
f 12/12/3 24/24/3 23/23/3 11/11/3
f 2/2/4 14/14/4 13/13/4 1/1/4
f 9/9/5 21/21/5 20/20/5 8/8/5
f 6/6/6 18/18/6 17/17/6 5/5/6
f 1/1/7 13/13/7 24/24/7 12/12/7
f 3/3/8 15/15/8 14/14/8 2/2/8
f 10/10/9 22/22/9 21/21/9 9/9/9
f 7/7/10 19/19/10 18/18/10 6/6/10
f 4/4/11 16/16/11 15/15/11 3/3/11
f 11/11/12 23/23/12 22/22/12 10/10/12
f 15/15/13 27/27/13 26/26/13 14/14/13
f 22/22/14 34/34/14 33/33/14 21/21/14
f 19/19/15 31/31/15 30/30/15 18/18/15
f 16/16/16 28/28/16 27/27/16 15/15/16
f 23/23/17 35/35/17 34/34/17 22/22/17
f 20/20/18 32/32/18 31/31/18 19/19/18
f 17/17/19 29/29/19 28/28/19 16/16/19
f 24/24/20 36/36/20 35/35/20 23/23/20
f 14/14/21 26/26/21 25/25/21 13/13/21
f 21/21/22 33/33/22 32/32/22 20/20/22
f 18/18/23 30/30/23 29/29/23 17/17/23
f 13/13/24 25/25/24 36/36/24 24/24/24
f 25/25/25 37/37/25 48/48/25 36/36/25
f 27/27/26 39/39/26 38/38/26 26/26/26
f 34/34/27 46/46/27 45/45/27 33/33/27
f 31/31/28 43/43/28 42/42/28 30/30/28
f 28/28/29 40/40/29 39/39/29 27/27/29
f 35/35/30 47/47/30 46/46/30 34/34/30
f 32/32/31 44/44/31 43/43/31 31/31/31
f 29/29/32 41/41/32 40/40/32 28/28/32
f 36/36/33 48/48/33 47/47/33 35/35/33
f 26/26/34 38/38/34 37/37/34 25/25/34
f 33/33/35 45/45/35 44/44/35 32/32/35
f 30/30/36 42/42/36 41/41/36 29/29/36
f 42/42/37 54/54/37 53/53/37 41/41/37
f 37/37/37 49/49/37 60/60/37 48/48/37
f 39/39/37 51/51/37 50/50/37 38/38/37
f 46/46/37 58/58/37 57/57/37 45/45/37
f 43/43/37 55/55/37 54/54/37 42/42/37
f 40/40/37 52/52/37 51/51/37 39/39/37
f 47/47/37 59/59/37 58/58/37 46/46/37
f 44/44/37 56/56/37 55/55/37 43/43/37
f 41/41/37 53/53/37 52/52/37 40/40/37
f 48/48/37 60/60/37 59/59/37 47/47/37
f 38/38/37 50/50/37 49/49/37 37/37/37
f 45/45/37 57/57/37 56/56/37 44/44/37
f 54/54/38 66/66/38 65/65/38 53/53/38
f 49/49/39 61/61/39 72/72/39 60/60/39
f 51/51/40 63/63/40 62/62/40 50/50/40
f 58/58/41 70/70/41 69/69/41 57/57/41
f 55/55/42 67/67/42 66/66/42 54/54/42
f 52/52/43 64/64/43 63/63/43 51/51/43
f 59/59/44 71/71/44 70/70/44 58/58/44
f 56/56/45 68/68/45 67/67/45 55/55/45
f 53/53/46 65/65/46 64/64/46 52/52/46
f 60/60/47 72/72/47 71/71/47 59/59/47
f 50/50/48 62/62/48 61/61/48 49/49/48
f 57/57/49 69/69/49 68/68/49 56/56/49
f 62/62/37 63/63/37 64/64/37 65/65/37 66/66/37 67/67/37 68/68/37 69/69/37 70/70/37 71/71/37 72/72/37 61/61/37
f 8/8/50 7/7/50 79/79/50 80/80/50
f 5/5/51 4/4/51 76/76/51 77/77/51
f 12/12/52 11/11/52 83/83/52 84/84/52
f 2/2/53 1/1/53 73/73/53 74/74/53
f 9/9/54 8/8/54 80/80/54 81/81/54
f 6/6/55 5/5/55 77/77/55 78/78/55
f 1/1/56 12/12/56 84/84/56 73/73/56
f 3/3/57 2/2/57 74/74/57 75/75/57
f 10/10/58 9/9/58 81/81/58 82/82/58
f 7/7/59 6/6/59 78/78/59 79/79/59
f 4/4/60 3/3/60 75/75/60 76/76/60
f 11/11/61 10/10/61 82/82/61 83/83/61
f 75/75/62 74/74/62 86/86/62 87/87/62
f 82/82/63 81/81/63 93/93/63 94/94/63
f 79/79/64 78/78/64 90/90/64 91/91/64
f 76/76/65 75/75/65 87/87/65 88/88/65
f 83/83/66 82/82/66 94/94/66 95/95/66
f 80/80/67 79/79/67 91/91/67 92/92/67
f 77/77/68 76/76/68 88/88/68 89/89/68
f 84/84/69 83/83/69 95/95/69 96/96/69
f 74/74/70 73/73/70 85/85/70 86/86/70
f 81/81/71 80/80/71 92/92/71 93/93/71
f 78/78/72 77/77/72 89/89/72 90/90/72
f 73/73/73 84/84/73 96/96/73 85/85/73
f 85/85/74 96/96/74 108/108/74 97/97/74
f 87/87/75 86/86/75 98/98/75 99/99/75
f 94/94/76 93/93/76 105/105/76 106/106/76
f 91/91/77 90/90/77 102/102/77 103/103/77
f 88/88/78 87/87/78 99/99/78 100/100/78
f 95/95/79 94/94/79 106/106/79 107/107/79
f 92/92/80 91/91/80 103/103/80 104/104/80
f 89/89/81 88/88/81 100/100/81 101/101/81
f 96/96/82 95/95/82 107/107/82 108/108/82
f 86/86/83 85/85/83 97/97/83 98/98/83
f 93/93/84 92/92/84 104/104/84 105/105/84
f 90/90/85 89/89/85 101/101/85 102/102/85
f 102/102/86 101/101/86 113/113/86 114/114/86
f 97/97/86 108/108/86 120/120/86 109/109/86
f 99/99/86 98/98/86 110/110/86 111/111/86
f 106/106/86 105/105/86 117/117/86 118/118/86
f 103/103/86 102/102/86 114/114/86 115/115/86
f 100/100/86 99/99/86 111/111/86 112/112/86
f 107/107/86 106/106/86 118/118/86 119/119/86
f 104/104/86 103/103/86 115/115/86 116/116/86
f 101/101/86 100/100/86 112/112/86 113/113/86
f 108/108/86 107/107/86 119/119/86 120/120/86
f 98/98/86 97/97/86 109/109/86 110/110/86
f 105/105/86 104/104/86 116/116/86 117/117/86
f 114/114/87 113/113/87 125/125/87 126/126/87
f 109/109/88 120/120/88 132/132/88 121/121/88
f 111/111/89 110/110/89 122/122/89 123/123/89
f 118/118/90 117/117/90 129/129/90 130/130/90
f 115/115/91 114/114/91 126/126/91 127/127/91
f 112/112/92 111/111/92 123/123/92 124/124/92
f 119/119/93 118/118/93 130/130/93 131/131/93
f 116/116/94 115/115/94 127/127/94 128/128/94
f 113/113/95 112/112/95 124/124/95 125/125/95
f 120/120/96 119/119/96 131/131/96 132/132/96
f 110/110/97 109/109/97 121/121/97 122/122/97
f 117/117/98 116/116/98 128/128/98 129/129/98
f 122/122/86 121/121/86 132/132/86 131/131/86 130/130/86 129/129/86 128/128/86 127/127/86 126/126/86 125/125/86 124/124/86 123/123/86
