# Blender 3.3.2
# www.blender.org
mtllib room_base6.mtl
o room_base6
v -16.000000 5.999998 12.500001
v -11.500001 6.000000 2.000002
v -7.500001 6.000000 2.000002
v 10.500000 6.000002 -10.999999
v 16.000000 5.999998 12.500001
v 10.500000 6.000002 -15.000000
v -15.999998 6.000003 -20.499994
v 16.000000 6.000003 -20.499998
v -1.500000 0.999998 12.500000
v 3.000000 -2.999999 -7.000000
v 10.499999 -2.999998 -14.788461
v 6.787880 -2.999998 -11.000001
v 10.500000 -2.999998 -14.828126
v 2.909092 -2.999999 -7.000000
v 16.000000 -3.000002 12.499999
v -16.000000 -3.000002 12.499999
v -7.500000 -3.000001 6.000000
v -16.000000 -2.999997 -20.500000
v -11.500000 -3.000001 6.000000
v -3.000000 -2.999999 -7.000000
v 16.000000 -2.999997 -20.500000
v 3.000000 6.000001 -6.999999
v 3.000000 -3.000000 -1.000000
v 3.000000 6.000000 -0.999999
v -2.909091 -3.000000 -1.000000
v -3.000000 -3.000000 -1.000000
v -3.000000 6.000000 -0.999999
v -3.000000 6.000001 -6.999999
v 6.851852 -2.999998 -11.000001
v 10.500000 -2.999998 -11.000001
v 6.500000 6.000002 -10.999999
v 6.500000 -2.999998 -11.000001
v 10.500001 -2.999998 -15.000001
v 6.500000 6.000002 -14.999999
v 6.499999 -2.999998 -15.000001
v -7.500000 -3.000000 2.000000
v -7.500000 -3.000001 3.734375
v -7.500000 5.999999 6.000001
v -11.500000 5.999999 6.000001
v -11.500001 -3.000000 1.999997
v 1.500000 1.000003 -20.499998
v 1.500000 1.000004 -24.000000
v -1.500000 1.000003 -20.499998
v 1.500000 -2.999996 -24.000000
v 1.500000 -2.999997 -20.500000
v -1.500000 -2.999996 -24.000000
v -1.500000 1.000004 -24.000000
v -1.500000 -2.999997 -20.500000
v -1.500000 0.999998 15.000000
v 1.500000 0.999998 12.500000
v 1.500000 0.999998 15.000000
v -1.500000 -3.000002 14.999999
v -1.500000 -3.000002 12.499999
v 1.500000 -3.000002 14.999999
v 1.500000 -3.000002 12.499999
vn -0.0000 -1.0000 -0.0000
vn -0.0000 1.0000 -0.0000
vn -0.0000 -0.0000 -1.0000
vn 1.0000 -0.0000 -0.0000
vn 1.0000 -0.0000 0.0079
vn -1.0000 -0.0000 -0.0000
vn -0.0000 -0.0000 1.0000
vn 0.0095 0.0062 -0.9999
vn -0.0055 0.0057 -1.0000
vn 0.0101 0.0051 -0.9999
vn 1.0000 -0.0078 0.0014
vn -0.0061 -1.0000 0.0051
vn -1.0000 0.0067 0.0042
vn -1.0000 -0.0000 0.0079
vn 1.0000 -0.0079 0.0008
vn -0.0076 0.0022 -1.0000
vn -0.0023 -0.0111 -0.9999
vn 1.0000 -0.0057 0.0055
vn 0.0023 0.0111 -0.9999
vn 0.0010 0.0078 -1.0000
vn 0.0011 0.0078 -1.0000
vn 1.0000 -0.0073 0.0031
vn 1.0000 -0.0079 0.0002
vn 1.0000 0.0024 0.0075
vn 1.0000 -0.0032 0.0072
vn 1.0000 -0.0076 0.0023
vn 1.0000 0.0024 0.0076
vn -0.0000 -1.0000 0.0079
vn -1.0000 0.0046 0.0065
vn -1.0000 0.0070 0.0036
vn -1.0000 0.0072 0.0032
vn 1.0000 -0.0069 0.0038
vn 1.0000 -0.0031 0.0073
vn -0.0073 -0.0030 -1.0000
vn -0.0101 -0.0051 -0.9999
vn -0.0095 -0.0062 -0.9999
vt 1.000000 0.000000
vt 0.000000 1.000000
vt 1.000000 1.000000
vt 0.000000 0.000000
vt 0.318115 0.859375
vt 0.318115 0.734375
vt 0.000000 1.000000
vt 0.711914 0.171753
vt 0.000000 0.000000
vt 0.000000 0.000000
vt 0.833008 0.171753
vt 0.000000 1.000000
vt 0.000000 0.000000
vt 1.000000 1.000000
vt 1.000000 0.000000
vt 0.000000 1.000000
vt 0.000000 0.500000
vt 0.546875 0.555176
vt 0.500000 0.000000
vt 0.590820 0.593750
vt 0.000000 0.000000
vt 1.000000 1.000000
vt 1.000000 0.946777
vt 0.826660 0.828125
vt 0.927734 1.000000
vt 0.711914 0.711914
vt 1.000000 0.957031
vt 0.828125 0.828125
vt 0.015144 0.000000
vt 0.590820 0.590820
vt 1.000000 0.000000
vt 0.000000 1.000000
vt 1.000000 1.000000
vt 0.000000 0.000000
vt 1.000000 0.000000
vt 0.000000 1.000000
vt 0.196899 0.265625
vt 1.000000 0.000000
vt 0.196899 0.140503
vt 1.000000 1.000000
vt 1.000000 0.000000
vt 0.590820 0.406250
vt 0.000000 0.000000
vt 1.000000 1.000000
vt 0.590820 0.406250
vt 0.000000 1.000000
vt 0.408936 0.593750
vt 1.000000 0.000000
vt 0.000000 1.000000
vt 0.408936 0.406250
vt 0.000000 0.000000
vt 0.408936 0.408936
vt 0.984375 1.000000
vt 0.408936 0.406250
vt 1.000000 1.000000
vt 0.408936 0.593750
vt 0.000000 1.000000
vt 1.000000 0.000000
vt 0.000000 0.000000
vt 1.000000 1.000000
vt 0.590820 0.593750
vt 0.911621 1.000000
vt 0.711914 0.713867
vt 1.000000 0.000000
vt 0.000000 1.000000
vt 0.711914 0.828125
vt 0.711914 0.296875
vt 1.000000 0.000000
vt 0.000000 1.000000
vt 1.000000 1.000000
vt 0.711914 0.702637
vt 0.000000 0.000000
vt 1.000000 1.000000
vt 0.833008 0.828125
vt 0.833008 0.296875
vt 0.000000 0.000000
vt 1.000000 1.000000
vt 0.833008 0.703125
vt 1.000000 0.000000
vt 0.000000 0.000000
vt 0.318115 0.265381
vt 1.000000 1.000000
vt 0.265625 0.265625
vt 1.000000 0.566406
vt 0.196899 0.734375
vt 0.000000 0.000000
vt 0.000000 1.000000
vt 0.196899 0.859375
vt 1.000000 0.000000
vt 0.318115 0.140503
vt 1.000000 0.000000
vt 0.000000 0.699707
vt 0.699707 0.000000
vt 0.453125 0.444336
vt 0.000000 0.000000
vt 0.699707 1.000000
vt 1.000000 0.699707
vt 0.546875 0.444336
vt 0.000000 1.000000
vt 0.699707 1.000000
vt 0.453125 0.000000
vt 0.000000 0.299805
vt 1.000000 1.000000
vt 0.000000 0.000000
vt 1.000000 0.000000
vt 0.000000 1.000000
vt 0.546875 0.000000
vt 1.000000 0.452881
vt 0.699707 0.000000
vt 0.000000 0.000000
vt 0.453125 0.555176
vt 1.000000 0.500000
vt 0.500000 1.000000
vt 1.000000 0.000000
vt 0.000000 1.000000
vt 0.000000 1.000000
vt 0.546875 1.000000
vt 0.000000 0.500000
vt 0.500000 1.000000
vt 1.000000 1.000000
vt 0.000000 0.000000
vt 0.500000 0.000000
vt 0.453125 1.000000
vt 0.000000 0.546875
s 0
usemtl [SpatialMaterial:32441].005
f 29/63/2 13/28/2 12/26/2
f 1/2/1 39/88/1 38/85/1
f 9/18/3 5/10/3 50/111/3
f 7/13/4 16/33/5 18/38/5
f 41/94/7 7/14/7 43/98/7
f 17/36/7 39/89/7 19/40/7
f 40/91/8 3/7/9 36/80/10
f 4/9/4 30/64/4 11/23/11
f 40/90/2 18/38/2 16/34/2
f 21/44/2 33/74/2 13/28/2
f 2/4/13 19/40/14 39/87/14
f 22/46/3 14/29/3 28/60/3
f 28/61/1 7/14/1 34/75/1
f 29/62/7 30/65/7 4/9/7
f 31/69/6 35/79/14 32/70/6
f 38/86/4 17/35/4 37/84/15
f 20/41/6 27/57/6 28/59/6
f 5/10/6 21/44/6 15/31/6
f 14/30/2 12/26/2 32/71/2
f 23/48/4 22/46/4 24/51/4
f 35/79/16 6/12/17 33/72/10
f 27/58/7 25/53/7 24/51/7
f 29/63/2 11/24/2 13/28/2
f 24/50/1 22/45/1 4/8/1
f 22/45/1 31/67/1 4/8/1
f 4/8/1 6/11/1 8/15/1
f 3/6/1 27/56/1 38/85/1
f 27/56/1 24/50/1 38/85/1
f 4/8/1 8/15/1 5/10/1
f 24/50/1 4/8/1 5/10/1
f 1/2/1 7/14/1 2/5/1
f 1/2/1 2/5/1 39/88/1
f 24/50/1 5/10/1 38/85/1
f 5/10/1 1/2/1 38/85/1
f 9/18/3 53/117/3 16/33/3
f 16/33/3 1/1/3 9/18/3
f 1/1/3 5/10/3 9/18/3
f 5/10/3 15/32/3 50/111/3
f 15/32/3 55/123/3 50/111/3
f 7/13/4 1/2/4 16/33/18
f 41/94/7 45/101/7 21/43/7
f 21/43/7 8/16/7 41/94/7
f 8/16/7 7/14/7 41/94/7
f 7/14/7 18/38/7 43/98/7
f 18/38/7 48/107/7 43/98/7
f 17/36/7 38/86/7 39/89/7
f 40/91/19 2/3/20 3/7/21
f 33/73/22 6/12/23 13/27/24
f 6/12/5 4/9/4 11/23/25
f 13/27/26 6/12/23 11/23/27
f 36/81/2 37/83/2 26/54/2
f 37/83/2 25/52/2 26/54/2
f 40/90/2 36/81/2 26/54/2
f 16/34/2 17/37/2 19/39/2
f 40/90/2 26/54/2 18/38/2
f 16/34/2 19/39/2 40/90/2
f 18/38/2 26/54/2 20/42/2
f 18/38/2 20/42/2 48/108/2
f 20/42/2 35/78/2 48/108/2
f 44/99/2 46/103/2 48/108/2
f 48/108/2 35/78/2 45/102/2
f 35/78/2 33/74/2 45/102/2
f 45/102/2 44/99/2 48/108/2
f 55/124/2 15/32/2 23/47/2
f 15/32/2 21/44/2 30/66/2
f 52/116/2 54/120/2 55/124/2
f 17/37/2 16/34/2 53/118/2
f 53/118/2 52/116/2 55/124/2
f 21/44/2 45/102/2 33/74/2
f 53/118/2 55/124/2 25/52/2
f 15/32/2 30/66/2 23/47/2
f 37/83/2 17/37/2 25/52/2
f 17/37/2 53/118/2 25/52/2
f 23/47/2 25/52/2 55/124/2
f 29/63/2 14/30/2 10/20/2
f 29/63/2 10/20/2 30/66/2
f 10/20/2 23/47/2 30/66/2
f 13/28/2 11/24/2 21/44/2
f 11/24/2 30/66/2 21/44/2
f 2/4/14 40/91/14 19/40/29
f 10/21/3 14/29/3 22/46/3
f 14/29/3 20/41/3 28/60/3
f 31/67/1 22/45/1 34/75/1
f 22/45/1 28/61/1 34/75/1
f 28/61/1 27/56/1 3/6/1
f 3/6/1 2/5/1 28/61/1
f 2/5/1 7/14/1 28/61/1
f 7/14/1 8/15/1 34/75/1
f 8/15/1 6/11/1 34/75/1
f 4/9/7 31/68/7 29/62/7
f 31/68/7 32/70/7 12/25/7
f 12/25/7 29/62/7 31/68/7
f 31/69/6 34/76/30 35/79/31
f 36/82/32 3/7/4 37/84/27
f 3/7/4 38/86/4 37/84/33
f 20/41/6 26/55/6 27/57/6
f 5/10/6 8/16/6 21/44/6
f 35/78/2 20/42/2 14/30/2
f 14/30/2 29/63/2 12/26/2
f 32/71/2 35/78/2 14/30/2
f 23/48/4 10/22/4 22/46/4
f 35/79/34 34/77/35 6/12/36
f 26/55/7 25/53/7 27/58/7
f 25/53/7 23/49/7 24/51/7
usemtl [SpatialMaterial:1477087]
f 43/97/1 42/95/1 41/92/1
f 45/100/6 42/95/6 44/99/6
f 50/112/12 49/110/1 9/17/1
f 54/121/6 50/113/6 55/122/6
f 52/116/4 9/19/4 49/110/4
f 48/109/4 47/106/4 43/96/4
f 43/97/1 47/105/1 42/95/1
f 45/100/6 41/93/6 42/95/6
f 50/112/28 51/114/28 49/110/1
f 54/121/6 51/115/6 50/113/6
f 52/116/4 53/119/4 9/19/4
f 48/109/4 46/104/4 47/106/4
