# Blender 3.3.2
# www.blender.org
mtllib room_base9.mtl
o room_base9
v 5.500000 3.999998 12.500001
v -1.500000 0.999998 12.500000
v -5.500000 -3.000002 12.499999
v -5.500000 3.999998 12.500001
v 5.500000 -3.000002 12.499999
v -5.500000 4.000001 -7.500000
v -5.500000 -2.999999 -7.500000
v 5.500000 4.000000 3.500001
v 5.500000 -3.000000 3.500000
v 25.000000 4.000001 -7.499999
v 25.000000 3.999998 12.500002
v 14.000000 4.000000 3.500001
v 13.999999 3.999998 12.500000
v 22.500002 4.000001 -7.500000
v 25.000000 -3.000002 10.000000
v 25.000000 -2.999999 -7.500000
v 14.000000 -3.000000 3.500000
v 25.000000 -3.000002 12.500000
v 13.999999 -3.000002 12.499998
v 28.500000 0.999998 10.000000
v 25.000000 0.999999 7.000000
v 28.500000 -3.000002 9.999999
v 25.000000 0.999998 10.000001
v 25.000000 -3.000001 7.000000
v 28.500000 0.999999 7.000000
v 28.500000 -3.000001 7.000000
v 1.500000 0.999998 12.500000
v 1.500000 0.999998 15.000000
v -1.500000 -3.000002 12.499999
v -1.500000 -3.000002 14.999999
v -1.500000 0.999998 15.000000
v 1.500000 -3.000002 12.499999
v 1.500000 -3.000002 14.999999
vn -1.0000 -0.0000 -0.0000
vn -0.0000 -0.0000 1.0000
vn -0.0000 -0.0000 -1.0000
vn -0.0000 -1.0000 -0.0000
vn 1.0000 -0.0000 -0.0000
vn 1.0000 -0.0045 0.0065
vn 1.0000 0.0049 0.0062
vn 1.0000 -0.0000 0.0079
vn 0.0065 -0.0046 -1.0000
vn 0.0079 -0.0000 -1.0000
vn -0.0042 -1.0000 0.0067
vn -0.0000 1.0000 -0.0000
vn -0.0076 0.0022 -1.0000
vn -0.0079 -0.0000 -1.0000
vn -0.0078 0.0015 -1.0000
vn 1.0000 0.0017 0.0077
vn 1.0000 -0.0051 0.0060
vn 0.0051 -0.0061 -1.0000
vn 0.0015 -1.0000 0.0078
vn -0.0070 -0.0036 -1.0000
vn -0.0059 0.0052 -1.0000
vn -0.0052 0.0060 -1.0000
vt 0.000000 0.000000
vt 0.636230 0.428467
vt 0.500000 0.000000
vt 0.000000 0.500000
vt 1.000000 1.000000
vt 0.000000 0.000000
vt 1.000000 0.000000
vt 0.000000 1.000000
vt 1.000000 0.000000
vt 0.000000 1.000000
vt 1.000000 1.000000
vt 0.000000 0.000000
vt 1.000000 0.000000
vt 0.000000 0.449951
vt 0.449951 0.000000
vt 0.000000 0.149902
vt 1.000000 0.449951
vt 1.000000 0.149902
vt 0.149902 1.000000
vt 1.000000 0.000000
vt 0.000000 1.000000
vt 1.000000 1.000000
vt 0.000000 0.000000
vt 0.000000 0.574707
vt 0.000000 0.549805
vt 0.574707 0.000000
vt 0.549805 0.000000
vt 1.000000 0.000000
vt 0.000000 1.000000
vt 0.000000 0.772461
vt 0.772461 0.000000
vt 0.699707 1.000000
vt 0.000000 0.299805
vt 1.000000 0.125000
vt 0.000000 0.000000
vt 1.000000 1.000000
vt 1.000000 0.574707
vt 1.000000 0.549805
vt 0.549805 1.000000
vt 1.000000 0.000000
vt 0.000000 0.000000
vt 1.000000 1.000000
vt 0.000000 0.000000
vt 0.699707 1.000000
vt 1.000000 0.699707
vt 0.428467 0.274902
vt 0.000000 1.000000
vt 0.000000 0.699707
vt 0.699707 0.000000
vt 0.428467 0.124939
vt 0.699707 0.000000
vt 0.724609 0.000000
vt 1.000000 0.274902
vt 1.000000 0.000000
vt 0.000000 1.000000
vt 0.000000 0.000000
vt 1.000000 1.000000
vt 1.000000 0.500000
vt 0.363525 0.428467
vt 0.500000 1.000000
vt 0.000000 1.000000
vt 1.000000 0.000000
vt 0.500000 1.000000
vt 0.636230 1.000000
vt 0.000000 0.500000
vt 0.000000 1.000000
vt 0.000000 0.000000
vt 0.363525 1.000000
vt 0.500000 0.000000
vt 0.000000 0.636230
vt 0.000000 0.000000
vt 1.000000 1.000000
s 0
usemtl [SpatialMaterial:32441].008
f 9/17/1 1/1/1 8/14/1
f 4/7/3 1/1/3 2/2/3
f 8/15/4 4/8/4 6/11/4
f 17/37/3 8/16/3 12/24/3
f 6/12/5 3/5/5 7/13/5
f 13/29/6 17/38/7 12/25/8
f 11/22/4 13/28/4 12/27/4
f 14/31/2 6/11/2 7/13/2
f 19/41/9 11/22/10 18/40/10
f 9/19/12 17/39/12 7/13/12
f 23/50/1 11/23/1 21/46/1
f 9/17/1 5/9/1 1/1/1
f 2/2/3 29/64/3 3/5/3
f 1/1/3 5/10/3 27/59/3
f 5/10/3 32/68/3 27/59/3
f 2/2/3 3/5/3 4/7/3
f 1/1/3 27/59/3 2/2/3
f 6/11/4 14/30/4 8/15/4
f 14/30/4 12/26/4 8/15/4
f 8/15/4 1/1/4 4/8/4
f 17/37/3 9/18/3 8/16/3
f 6/12/5 4/8/5 3/5/5
f 13/29/16 19/42/17 17/38/8
f 12/27/4 14/30/4 10/21/4
f 10/21/4 11/22/4 12/27/4
f 7/13/2 16/36/2 14/31/2
f 16/36/2 10/20/2 14/31/2
f 19/41/10 13/29/10 11/22/18
f 32/70/12 5/10/12 9/19/12
f 17/39/12 19/42/12 24/52/12
f 19/42/12 18/40/12 15/33/12
f 19/42/12 15/33/12 24/52/12
f 15/33/12 22/47/12 26/57/12
f 24/52/12 16/35/12 17/39/12
f 16/35/12 7/13/12 17/39/12
f 15/33/12 26/57/12 24/52/12
f 7/13/12 3/6/12 9/19/12
f 3/6/12 29/65/12 9/19/12
f 29/65/12 30/66/12 33/72/12
f 29/65/12 33/72/12 32/70/12
f 29/65/12 32/70/12 9/19/12
f 23/50/1 15/34/1 18/40/1
f 11/23/1 10/21/1 21/46/1
f 10/21/1 16/36/1 21/46/1
f 16/36/1 24/53/1 21/46/1
f 23/50/1 18/40/1 11/23/1
usemtl [SpatialMaterial:1485169]
f 26/56/2 21/44/2 24/51/2
f 20/43/4 21/45/4 25/54/4
f 2/3/5 30/66/5 29/63/5
f 27/60/1 33/71/1 28/61/1
f 28/62/11 2/4/4 27/58/4
f 23/49/13 22/47/14 15/32/15
f 26/56/2 25/55/2 21/44/2
f 20/43/4 23/48/4 21/45/4
f 2/3/5 31/67/5 30/66/5
f 27/60/1 32/69/1 33/71/1
f 28/62/19 31/67/4 2/4/4
f 23/49/20 20/43/21 22/47/22
