# Blender 3.3.2
# www.blender.org
mtllib room_base7.mtl
o room_base7
v 33.000000 -3.000002 11.999999
v 33.000000 3.999998 12.000001
v 18.000000 3.999998 10.500001
v -3.000000 3.999998 12.000001
v 12.000000 3.999998 10.500002
v 12.000000 3.999998 12.000001
v 20.000000 4.000000 0.500001
v -0.500000 4.000000 -0.999999
v 1.500000 -3.000002 11.999999
v 18.000000 3.999998 12.000001
v -1.500000 0.999998 12.000000
v -3.000000 4.000000 3.000001
v -3.000000 -3.000000 3.000000
v 18.000000 -3.000002 11.999999
v 33.000000 -3.000002 10.999999
v 33.000000 -3.000001 8.000000
v 12.000000 -3.000002 10.499999
v -3.000000 -3.000002 11.999999
v 33.000000 -3.000000 -1.000000
v 20.000000 -3.000000 0.500000
v 20.000000 -3.000000 -1.000000
v 33.000000 4.000000 -0.999999
v 26.000000 4.000000 -0.999999
v 12.000000 -3.000002 11.999999
v 18.000000 -3.000002 10.499999
v -0.500000 -3.000000 3.000000
v -0.500000 -3.000000 -1.000000
v -0.500000 4.000000 3.000002
v 26.000000 4.000000 0.500001
v 26.000000 -3.000000 -1.000000
v 25.999998 -3.000000 0.500001
v 20.000000 4.000000 -0.999999
v 1.500000 0.999998 12.000000
v -1.500000 -3.000002 14.999999
v -1.500000 -3.000002 11.999999
v -1.500000 0.999998 15.000000
v 1.500000 -3.000002 14.999999
v 1.500000 0.999998 15.000000
v 33.000000 0.999998 11.000000
v 36.500000 0.999998 11.000000
v 33.000000 0.999999 8.000000
v 36.500000 -3.000002 10.999999
v 36.500000 -3.000001 8.000000
v 36.500000 0.999999 8.000000
vn 0.0051 0.0060 -1.0000
vn -0.0051 -0.0060 -1.0000
vn 0.0046 0.0065 -1.0000
vn -0.0000 -0.0000 1.0000
vn 1.0000 -0.0071 0.0036
vn 1.0000 -0.0002 0.0079
vn 1.0000 -0.0000 0.0079
vn 1.0000 -0.0000 -0.0000
vn 1.0000 0.0029 0.0074
vn -0.0000 -1.0000 -0.0000
vn -0.0000 -1.0000 0.0079
vn 0.0009 -1.0000 0.0079
vn -0.0000 -0.0000 -1.0000
vn -0.0000 1.0000 -0.0000
vn -1.0000 0.0077 0.0017
vn -1.0000 -0.0000 -0.0000
vn -1.0000 0.0059 0.0052
vn -1.0000 -0.0002 0.0080
vn -1.0000 -0.0000 0.0079
vn -0.0000 0.0079 -1.0000
vn -0.0073 0.0032 -1.0000
vn -0.0079 -0.0000 -1.0000
vn 1.0000 -0.0000 0.0080
vn 1.0000 -0.0040 0.0068
vn -0.0056 -1.0000 0.0056
vn -1.0000 0.0037 0.0070
vt 0.000000 1.000000
vt 1.000000 0.000000
vt 0.000000 0.000000
vt 0.115356 0.416504
vt 0.000000 1.000000
vt 0.000000 1.000000
vt 1.000000 0.000000
vt 1.000000 1.000000
vt 0.115356 0.583008
vt 0.000000 0.000000
vt 0.000000 0.375000
vt 0.000000 0.583008
vt 0.583008 0.000000
vt 1.000000 0.000000
vt 0.884277 0.361084
vt 0.000000 1.000000
vt 0.930176 1.000000
vt 1.000000 0.930176
vt 0.000000 0.666504
vt 0.000000 0.125000
vt 0.875000 1.000000
vt 0.599609 0.000000
vt 0.000000 0.625000
vt 0.000000 0.416504
vt 0.416504 0.000000
vt 0.599609 0.000000
vt 0.000000 0.599609
vt 0.958008 0.428467
vt 0.416504 0.000000
vt 0.000000 0.307617
vt 0.691895 1.000000
vt 0.416504 1.000000
vt 1.000000 0.307617
vt 0.691895 0.000000
vt 0.416504 1.000000
vt 0.000000 0.583008
vt 1.000000 0.625000
vt 0.000000 0.299805
vt 0.699707 1.000000
vt 1.000000 0.076904
vt 0.699707 0.000000
vt 0.307617 1.000000
vt 1.000000 0.307617
vt 0.115356 0.416504
vt 1.000000 0.000000
vt 0.000000 0.000000
vt 1.000000 1.000000
vt 0.000000 0.000000
vt 1.000000 1.000000
vt 0.884277 0.638672
vt 1.000000 1.000000
vt 0.361084 0.000000
vt 1.000000 0.638672
vt 1.000000 0.624512
vt 1.000000 0.000000
vt 0.000000 1.000000
vt 1.000000 0.194336
vt 0.194336 1.000000
vt 0.000000 0.375000
vt 0.000000 0.416504
vt 0.583008 1.000000
vt 1.000000 0.375000
vt 0.000000 0.000000
vt 0.115356 0.583008
vt 1.000000 1.000000
vt 0.000000 1.000000
vt 0.691895 0.069397
vt 1.000000 0.000000
vt 0.930176 0.000000
vt 1.000000 0.069397
vt 1.000000 0.666504
vt 0.000000 0.000000
vt 0.691895 0.930176
vt 0.000000 0.000000
vt 0.884277 0.194336
vt 1.000000 0.375000
vt 1.000000 0.805176
vt 0.194336 0.000000
vt 1.000000 0.000000
vt 0.000000 1.000000
vt 0.884277 0.805176
vt 0.000000 0.625000
vt 0.361084 1.000000
vt 1.000000 0.361084
vt 1.000000 0.599609
vt 0.874512 0.428467
vt 0.599609 1.000000
vt 0.000000 1.000000
vt 0.599609 1.000000
vt 0.000000 0.399902
vt 0.958008 1.000000
vt 0.000000 0.000000
vt 1.000000 1.000000
vt 0.000000 0.000000
vt 1.000000 0.000000
vt 0.000000 1.000000
vt 0.699707 0.000000
vt 0.428467 0.076904
vt 0.000000 0.699707
vt 0.000000 0.000000
vt 0.699707 1.000000
vt 0.428467 0.307617
vt 1.000000 0.699707
vt 0.000000 1.000000
vt 0.000000 0.000000
vt 1.000000 1.000000
vt 1.000000 0.000000
vt 0.000000 1.000000
s 0
usemtl [SpatialMaterial:32441].006
f 17/45/1 3/5/2 25/63/3
f 21/52/4 8/17/4 27/69/4
f 30/76/5 29/74/6 31/79/7
f 31/80/4 7/14/4 20/51/4
f 26/66/4 12/29/4 13/32/4
f 12/30/8 18/47/8 13/33/9
f 29/75/10 23/57/10 22/55/10
f 10/25/13 1/1/13 14/35/13
f 35/90/14 37/93/14 9/20/14
f 4/7/13 33/86/13 11/28/13
f 21/54/15 7/16/16 32/82/17
f 30/78/4 22/56/4 23/58/4
f 14/37/8 3/5/8 10/23/8
f 5/10/16 24/62/18 6/11/19
f 26/68/8 8/19/8 28/72/8
f 39/98/16 2/3/16 41/102/16
f 17/45/20 5/8/21 3/5/22
f 21/52/4 32/83/4 8/17/4
f 30/76/23 23/59/8 29/74/24
f 31/80/4 29/74/4 7/14/4
f 26/66/4 28/72/4 12/29/4
f 12/30/8 4/6/8 18/47/8
f 28/73/10 8/18/10 5/9/10
f 8/18/10 32/84/10 7/15/10
f 8/18/10 7/15/10 5/9/10
f 4/6/10 12/31/10 28/73/10
f 5/9/10 6/12/10 4/6/10
f 2/3/10 10/24/10 3/4/10
f 5/9/10 4/6/10 28/73/10
f 22/55/10 2/3/10 29/75/10
f 2/3/10 3/4/10 29/75/10
f 3/4/10 5/9/10 7/15/10
f 7/15/10 29/75/10 3/4/10
f 10/25/13 2/3/13 1/1/13
f 16/42/14 19/49/14 31/81/14
f 19/49/14 30/77/14 31/81/14
f 42/104/14 43/106/14 16/42/14
f 14/36/14 1/1/14 15/38/14
f 15/38/14 42/104/14 16/42/14
f 16/42/14 31/81/14 25/64/14
f 31/81/14 20/50/14 25/64/14
f 20/50/14 21/53/14 27/70/14
f 26/67/14 13/34/14 35/90/14
f 13/34/14 18/46/14 35/90/14
f 20/50/14 27/70/14 17/44/14
f 27/70/14 26/67/14 17/44/14
f 15/38/14 16/42/14 25/64/14
f 25/64/14 14/36/14 15/38/14
f 9/20/14 24/60/14 17/44/14
f 17/44/14 25/64/14 20/50/14
f 35/90/14 34/88/14 37/93/14
f 26/67/14 35/90/14 9/20/14
f 9/20/14 17/44/14 26/67/14
f 4/7/13 6/13/13 33/86/13
f 6/13/13 24/61/13 33/86/13
f 24/61/13 9/21/13 33/86/13
f 11/28/13 35/91/13 18/47/13
f 11/28/13 18/47/13 4/7/13
f 21/54/19 20/51/16 7/16/16
f 30/78/4 19/48/4 22/56/4
f 14/37/8 25/65/8 3/5/8
f 5/10/16 17/45/16 24/62/26
f 26/68/8 27/71/8 8/19/8
f 39/98/16 15/40/16 1/2/16
f 2/3/16 22/56/16 41/102/16
f 22/56/16 19/49/16 41/102/16
f 19/49/16 16/43/16 41/102/16
f 39/98/16 1/2/16 2/3/16
usemtl [SpatialMaterial:1479522]
f 36/92/8 35/89/8 11/26/8
f 43/105/4 41/101/4 16/41/4
f 36/92/10 33/85/11 38/95/12
f 42/104/13 39/97/13 40/100/13
f 33/87/16 37/94/16 38/96/16
f 40/100/10 41/103/10 44/107/10
f 36/92/8 34/88/8 35/89/8
f 43/105/4 44/108/4 41/101/4
f 36/92/10 11/27/10 33/85/25
f 42/104/13 15/39/13 39/97/13
f 33/87/16 9/22/16 37/94/16
f 40/100/10 39/99/10 41/103/10
