# Blender 3.3.2
# www.blender.org
mtllib room_base8.mtl
o room_base8
v -7.500002 4.000000 -0.499999
v -7.500000 3.999998 12.500001
v 7.500000 4.000000 -0.499999
v -7.500000 -3.000002 12.499999
v -1.500000 0.999998 12.500000
v 7.500000 3.999998 12.500000
v 7.500000 -3.000000 -0.500000
v 7.500000 -3.000002 12.499999
v 10.000000 -2.999994 -34.500000
v -3.229166 4.000005 -28.000000
v 10.000000 4.000006 -34.500000
v 2.500000 -2.999996 -22.500000
v 2.500000 4.000004 -22.500000
v 1.500000 1.000006 -34.500000
v -10.000000 4.000006 -34.500000
v -1.500000 1.000006 -34.500000
v -10.000000 -2.999994 -34.500000
v -15.000000 4.000000 -0.499999
v 2.500000 4.000002 -12.499999
v 15.000000 4.000002 -12.499999
v 15.000000 4.000000 -0.499999
v 15.000000 -3.000000 -0.500000
v -7.500000 -3.000000 -0.500000
v 15.000000 -2.999998 -12.500001
v -15.000000 -3.000000 -0.500000
v 12.500000 4.000002 -12.499998
v -15.000000 4.000002 -12.500000
v -12.500002 -2.999998 -12.500002
v -15.000000 -2.999998 -12.500001
v -2.500000 -2.999998 -12.500000
v 12.500000 4.000005 -28.000000
v 12.500000 -2.999998 -12.500002
v 10.000000 -2.999995 -28.000000
v 12.500000 -2.999995 -28.000000
v 2.499998 -2.999998 -12.500001
v 10.000000 4.000005 -28.000000
v -2.500000 -2.999996 -22.500000
v -2.500000 4.000004 -27.300001
v -10.000000 4.000005 -28.000000
v -2.500000 4.000004 -22.500000
v -2.500000 4.000002 -12.499999
v -12.500000 4.000005 -28.000000
v -12.500000 4.000002 -12.499999
v -10.000000 -2.999995 -28.000000
v -12.500000 -2.999995 -28.000000
v -1.500000 1.000006 -38.000000
v 1.500000 -2.999994 -38.000000
v 1.500000 1.000006 -38.000000
v 1.500001 -2.999994 -34.500000
v -1.499998 -2.999994 -34.500000
v -1.500000 -2.999994 -38.000000
v 1.500000 0.999998 15.000000
v -1.500000 0.999998 15.000000
v -1.500000 -3.000002 14.999999
v -1.500000 -3.000002 12.499999
v 1.500000 -3.000002 14.999999
v 1.500000 -3.000002 12.499999
v 1.500000 0.999998 12.499999
vn -0.0000 -0.0000 -1.0000
vn -0.0080 -0.0080 -0.9999
vn -0.0038 -0.0106 -0.9999
vn 1.0000 -0.0057 0.0054
vn 1.0000 -0.0000 -0.0000
vn -1.0000 -0.0000 -0.0000
vn -0.0000 -0.0000 1.0000
vn 0.0057 -0.0055 -1.0000
vn 1.0000 -0.0022 0.0076
vn 1.0000 -0.0015 0.0078
vn 1.0000 -0.0008 0.0079
vn -0.0000 -1.0000 -0.0000
vn -0.0000 1.0000 -0.0000
vn 0.0017 -1.0000 0.0077
vn -1.0000 -0.0000 0.0079
vn -1.0000 0.0060 0.0052
vn -1.0000 0.0053 0.0060
vn -0.0029 -1.0000 0.0074
vn 0.0080 -0.0080 -0.9999
vn -0.0112 0.0013 -0.9999
vn -0.0020 -0.0111 -0.9999
vn 1.0000 -0.0000 0.0079
vn 0.0079 -0.0000 -1.0000
vn 1.0000 0.0036 0.0070
vn 1.0000 -0.0062 0.0049
vn -1.0000 -0.0014 0.0078
vn -1.0000 0.0045 0.0065
vn -0.0000 1.0000 0.0079
vn -1.0000 0.0019 0.0077
vn 0.0029 -1.0000 0.0073
vt 0.000000 0.380859
vt 0.750000 0.000000
vt 0.000000 0.750000
vt 1.000000 0.000000
vt 0.000000 1.000000
vt 0.000000 0.618652
vt 0.250000 0.000000
vt 0.618652 0.000000
vt 1.000000 1.000000
vt 0.000000 0.000000
vt 0.599609 0.428467
vt 0.500000 0.000000
vt 0.000000 0.500000
vt 0.000000 0.000000
vt 1.000000 0.618652
vt 0.250000 1.000000
vt 0.000000 0.750000
vt 1.000000 0.000000
vt 0.000000 1.000000
vt 0.000000 0.000000
vt 1.000000 1.000000
vt 0.458252 0.661133
vt 1.000000 0.072876
vt 0.000000 1.000000
vt 1.000000 0.000000
vt 1.000000 0.261719
vt 0.375000 1.000000
vt 0.737793 0.000000
vt 0.375000 0.000000
vt 0.000000 0.261719
vt 0.000000 0.375000
vt 0.424805 0.571289
vt 0.000000 0.699707
vt 0.699707 0.000000
vt 0.000000 0.000000
vt 1.000000 1.000000
vt 0.699707 1.000000
vt 0.574707 0.571289
vt 1.000000 0.699707
vt 1.000000 0.000000
vt 1.000000 0.000000
vt 0.000000 1.000000
vt 0.000000 0.737793
vt 0.416504 1.000000
vt 0.261719 1.000000
vt 1.000000 0.000000
vt 0.000000 1.000000
vt 0.000000 0.000000
vt 1.000000 0.000000
vt 0.000000 1.000000
vt 0.750000 1.000000
vt 1.000000 0.380859
vt 0.618652 0.000000
vt 1.000000 1.000000
vt 0.000000 0.000000
vt 1.000000 1.000000
vt 0.000000 0.000000
vt 0.083313 1.000000
vt 0.000000 0.261719
vt 1.000000 0.083313
vt 0.000000 0.000000
vt 1.000000 1.000000
vt 1.000000 0.737793
vt 0.916504 0.000000
vt 1.000000 0.083313
vt 1.000000 0.000000
vt 0.583008 0.000000
vt 1.000000 0.261719
vt 0.261719 1.000000
vt 1.000000 0.000000
vt 0.000000 1.000000
vt 1.000000 0.261719
vt 0.261719 1.000000
vt 0.083313 0.000000
vt 1.000000 0.458252
vt 0.250000 0.000000
vt 1.000000 0.750000
vt 0.458252 1.000000
vt 0.000000 0.000000
vt 1.000000 1.000000
vt 1.000000 0.737793
vt 0.416504 0.000000
vt 1.000000 0.583008
vt 0.000000 0.458252
vt 0.250000 1.000000
vt 1.000000 0.250000
vt 0.625000 1.000000
vt 1.000000 0.737793
vt 0.000000 0.375000
vt 0.966309 0.000000
vt 0.750000 1.000000
vt 0.000000 0.541504
vt 0.458252 1.000000
vt 1.000000 0.750000
vt 0.625000 0.000000
vt 0.000000 0.625000
vt 0.737793 0.000000
vt 0.000000 0.737793
vt 0.583008 1.000000
vt 1.000000 0.583008
vt 0.261719 0.000000
vt 0.000000 0.261719
vt 0.000000 0.000000
vt 1.000000 1.000000
vt 0.000000 0.737793
vt 0.916504 1.000000
vt 0.261719 1.000000
vt 1.000000 0.541504
vt 0.750000 0.000000
vt 1.000000 0.250000
vt 1.000000 0.000000
vt 1.000000 0.000000
vt 0.000000 1.000000
vt 0.000000 1.000000
vt 0.000000 0.000000
vt 0.424805 0.000000
vt 0.000000 0.299805
vt 0.699707 1.000000
vt 0.574707 0.000000
vt 0.699707 0.000000
vt 1.000000 0.424805
vt 0.000000 0.000000
vt 1.000000 1.000000
vt 0.000000 1.000000
vt 1.000000 0.000000
vt 0.000000 0.000000
vt 0.000000 1.000000
vt 0.500000 1.000000
vt 0.599609 1.000000
vt 0.000000 0.500000
vt 0.000000 0.000000
vt 1.000000 1.000000
vt 0.399902 1.000000
vt 0.500000 0.000000
vt 0.000000 0.599609
vt 1.000000 0.500000
vt 0.399902 0.428467
vt 0.500000 1.000000
s 0
usemtl [SpatialMaterial:32441].007
f 5/11/1 2/4/2 6/14/3
f 28/63/4 42/103/5 43/105/5
f 11/24/6 33/75/6 36/84/6
f 44/109/7 42/104/7 45/111/7
f 28/64/7 27/62/7 29/66/7
f 17/40/5 39/92/5 44/108/5
f 40/95/1 12/27/1 37/87/1
f 7/15/6 6/14/6 3/6/6
f 11/24/7 15/36/7 14/32/7
f 7/16/1 21/48/1 22/50/1
f 25/56/8 1/2/1 23/51/1
f 29/66/5 18/42/5 25/56/5
f 13/30/5 35/81/11 12/26/5
f 35/82/7 41/99/7 30/67/7
f 2/5/5 23/52/5 1/1/5
f 21/48/6 24/54/6 22/49/6
f 32/72/6 31/71/6 34/80/6
f 3/8/12 1/3/12 19/45/12
f 33/76/7 31/71/7 36/85/7
f 39/94/12 40/97/12 43/107/12
f 41/102/6 37/88/15 30/68/6
f 37/89/13 49/117/13 50/121/13
f 32/74/7 20/47/7 26/58/7
f 5/11/1 55/129/1 4/9/1
f 6/14/19 8/19/1 58/137/1
f 8/19/1 57/133/1 58/137/1
f 5/11/1 4/9/1 2/4/20
f 6/14/21 58/137/1 5/11/1
f 28/63/22 45/111/22 42/103/5
f 11/24/6 9/21/6 33/75/6
f 44/109/7 39/91/7 42/104/7
f 28/64/7 43/106/7 27/62/7
f 17/40/5 15/35/5 39/92/5
f 40/95/1 13/29/1 12/27/1
f 7/15/6 8/18/6 6/14/6
f 49/116/7 9/20/7 14/32/7
f 9/20/7 11/24/7 14/32/7
f 15/36/7 17/40/7 16/38/7
f 17/40/7 50/119/7 16/38/7
f 15/36/7 16/38/7 14/32/7
f 7/16/1 3/7/1 21/48/1
f 25/56/23 18/41/23 1/2/1
f 29/66/5 27/61/5 18/42/5
f 13/30/5 19/43/5 35/81/25
f 35/82/7 19/44/7 41/99/7
f 2/5/5 4/9/5 23/52/5
f 21/48/6 20/47/6 24/54/6
f 32/72/6 26/59/6 31/71/6
f 10/22/12 39/93/12 15/36/12
f 15/36/12 11/25/12 10/22/12
f 11/25/12 36/86/12 38/90/12
f 10/22/12 11/25/12 38/90/12
f 36/86/12 31/70/12 26/60/12
f 26/60/12 20/46/12 21/48/12
f 3/8/12 6/14/12 2/5/12
f 26/60/12 21/48/12 3/8/12
f 13/31/12 40/96/12 38/90/12
f 36/86/12 26/60/12 13/31/12
f 26/60/12 3/8/12 19/45/12
f 3/8/12 2/5/12 1/3/12
f 1/3/12 18/42/12 43/107/12
f 18/42/12 27/62/12 43/107/12
f 43/107/12 41/100/12 1/3/12
f 41/100/12 19/45/12 1/3/12
f 13/31/12 38/90/12 36/86/12
f 19/45/12 13/31/12 26/60/12
f 33/76/7 34/79/7 31/71/7
f 43/107/12 42/104/12 39/94/12
f 39/94/12 10/23/12 40/97/12
f 10/23/12 38/90/12 40/97/12
f 40/97/12 41/101/12 43/107/12
f 41/102/6 40/98/26 37/88/27
f 44/110/13 45/111/28 28/65/13
f 28/65/13 29/66/13 25/57/13
f 25/57/13 30/69/13 28/65/13
f 30/69/13 37/89/13 28/65/13
f 37/89/13 12/28/13 49/117/13
f 12/28/13 33/78/13 49/117/13
f 33/78/13 9/21/13 49/117/13
f 49/117/13 47/114/13 50/121/13
f 47/114/13 51/123/13 50/121/13
f 50/121/13 17/40/13 44/110/13
f 50/121/13 44/110/13 37/89/13
f 44/110/13 28/65/13 37/89/13
f 32/74/7 24/55/7 20/47/7
usemtl [SpatialMaterial:1481665]
f 5/12/5 54/127/5 55/128/5
f 50/120/9 46/113/5 16/37/10
f 52/124/6 57/134/6 56/131/6
f 23/53/13 7/17/13 35/83/13
f 48/115/12 16/39/12 46/112/14
f 47/114/16 14/34/6 48/115/17
f 52/125/18 5/13/12 58/136/12
f 5/12/5 53/126/5 54/127/5
f 50/120/24 51/122/5 46/113/5
f 52/124/6 58/138/6 57/134/6
f 7/17/13 22/50/13 32/73/13
f 22/50/13 24/54/13 32/73/13
f 32/73/13 34/80/13 33/77/13
f 57/135/13 8/19/13 7/17/13
f 54/127/13 56/132/13 57/135/13
f 23/53/13 4/10/13 55/130/13
f 55/130/13 54/127/13 57/135/13
f 57/135/13 7/17/13 55/130/13
f 7/17/13 32/73/13 35/83/13
f 55/130/13 7/17/13 23/53/13
f 32/73/13 33/77/13 12/28/13
f 35/83/13 30/69/13 23/53/13
f 30/69/13 25/57/13 23/53/13
f 32/73/13 12/28/13 35/83/13
f 48/115/12 14/33/12 16/39/12
f 47/114/15 49/118/29 14/34/6
f 52/125/30 53/126/12 5/13/12
