# Blender 3.3.2
# www.blender.org
mtllib room_base5.mtl
o room_base5
v 9.500000 -1.000001 5.500000
v 9.500000 -3.000001 5.500000
v 9.500000 -3.000001 12.499998
v 9.500000 9.999998 12.500002
v -1.500000 0.999998 12.500000
v 1.500000 0.999998 12.500000
v -9.500000 -3.000002 12.499999
v -9.500000 9.999998 12.500002
v -9.500000 10.000003 -19.499998
v -9.500000 2.500001 -6.000000
v -9.500000 -2.999997 -19.500000
v -9.500000 2.500002 -10.000000
v -9.500000 1.000002 -10.000000
v -3.000000 -2.999998 -14.000003
v -9.500000 -2.999999 -6.000000
v 9.500000 10.000003 -19.499998
v 9.500000 -2.999997 -19.500000
v -5.000000 1.000003 -19.500000
v -8.000000 1.000003 -19.500000
v -5.000000 1.000004 -23.500000
v -5.000000 -2.999996 -23.500000
v -5.000000 -2.999997 -19.500000
v -8.000000 1.000004 -23.500000
v -8.000000 -2.999996 -23.500000
v -8.000000 -2.999997 -19.500000
v 1.500000 0.999998 15.000000
v -1.500000 0.999998 15.000000
v -1.500000 -3.000002 14.999999
v -1.500000 -3.000002 12.499999
v 1.500000 -3.000002 12.499999
v 1.500000 -3.000002 14.999999
v 9.500000 2.500000 -2.500000
v 9.500000 2.500000 1.500000
v 9.500000 1.000000 1.500000
v 2.500000 1.000000 1.500000
v 2.500000 2.500000 1.500000
v 9.500000 -3.000000 -2.500000
v 2.500000 -3.000000 -2.500000
v 2.500000 2.500000 -2.500000
v 9.500000 0.999998 3.500000
v 6.540961 -1.000001 3.500000
v 6.568698 -1.051525 3.500000
v 9.500000 -1.000001 3.500000
v 6.500000 -0.000001 3.500000
v 2.500000 0.999999 3.500000
v 6.500000 -1.000001 3.500000
v 6.500000 -0.000001 5.500000
v 2.500000 -0.000001 3.500000
v 6.500000 -1.000001 5.500000
v 2.500000 -0.000001 5.500000
v 2.500000 -3.000001 5.500000
v -3.000000 2.500002 -10.000000
v -3.000000 2.500001 -6.000000
v -3.000000 1.000002 -10.000000
v -3.000000 -2.999999 -6.000000
v -9.500000 1.000002 -12.000000
v -3.000000 1.000002 -12.000000
v -7.000000 0.000002 -14.000000
v -7.000000 0.000002 -12.000000
v -3.000000 0.000002 -14.000000
v -3.000000 0.000002 -12.000000
v -9.500000 -0.999998 -12.000000
v -7.000000 -0.999998 -12.000000
v -9.500000 -2.999998 -14.000001
v -9.500000 -0.999998 -14.000000
v -7.000000 -0.999998 -14.000000
vn -0.0000 1.0000 -0.0000
vn -0.0000 -1.0000 -0.0000
vn -1.0000 -0.0000 -0.0000
vn 0.0066 1.0000 0.0043
vn 0.0042 1.0000 0.0067
vn -0.0000 -0.0000 1.0000
vn -0.0000 -0.0000 -1.0000
vn 1.0000 -0.0000 -0.0000
vn 1.0000 0.0057 0.0055
vn 1.0000 -0.0064 0.0046
vn 1.0000 -0.0012 -0.0078
vn -0.0000 1.0000 0.0079
vn 0.0024 1.0000 0.0075
vn -0.0050 0.0101 -0.9999
vn -0.0024 -1.0000 0.0075
vn -0.0000 -1.0000 0.0079
vn 0.0015 1.0000 0.0078
vn -0.0076 1.0000 0.0022
vn -1.0000 0.0069 0.0039
vn 0.0077 1.0000 0.0019
vn 0.0018 1.0000 0.0077
vn -0.0048 1.0000 0.0063
vn 0.0020 0.0076 -1.0000
vn 0.0034 0.0072 -1.0000
vn -0.0013 0.0078 -1.0000
vn 1.0000 0.0073 0.0031
vn 1.0000 -0.0063 0.0048
vn 1.0000 -0.0043 -0.0067
vn 1.0000 -0.0000 0.0079
vn 1.0000 0.0036 -0.0070
vn 1.0000 0.0032 -0.0072
vn 1.0000 -0.0072 0.0032
vn 1.0000 -0.0014 0.0078
vn 1.0000 0.0011 0.0078
vn -0.0069 1.0000 0.0039
vn -0.0004 1.0000 0.0079
vn -0.0000 1.0000 -0.0079
vn 0.0079 1.0000 0.0007
vn 0.0008 0.0113 -0.9999
vn -0.0080 0.0080 -0.9999
vn -0.0071 0.0035 -1.0000
vn -0.0079 -0.0000 -1.0000
vn -0.0079 -0.0007 -1.0000
vn 0.0035 -1.0000 0.0071
vn -0.0033 1.0000 0.0072
vn 0.0039 1.0000 0.0069
vn -1.0000 0.0051 0.0061
vn -1.0000 0.0063 -0.0047
vn -1.0000 -0.0000 0.0079
vn -1.0000 -0.0041 -0.0067
vn -1.0000 0.0075 0.0025
vn -1.0000 0.0052 0.0060
vt 0.250000 0.000000
vt 0.000000 0.250000
vt 0.845703 0.218628
vt 0.250000 0.666504
vt 0.218750 1.000000
vt 1.000000 0.218628
vt 0.000000 1.000000
vt 1.000000 0.000000
vt 0.000000 0.000000
vt 0.500000 0.000000
vt 0.578613 0.691895
vt 0.000000 0.500000
vt 1.000000 0.500000
vt 0.500000 1.000000
vt 0.420898 0.691895
vt 0.000000 0.000000
vt 1.000000 1.000000
vt 1.000000 0.000000
vt 0.000000 1.000000
vt 1.000000 1.000000
vt 0.000000 0.000000
vt 0.071411 1.000000
vt 1.000000 0.071411
vt 0.576660 0.421631
vt 1.000000 0.000000
vt 0.071411 0.000000
vt 0.000000 0.071411
vt 0.576660 0.296875
vt 1.000000 0.071411
vt 0.071411 0.250000
vt 0.691895 0.296875
vt 1.000000 0.749512
vt 0.750000 1.000000
vt 0.827637 0.342041
vt 0.071411 0.083313
vt 0.578125 0.000000
vt 1.000000 0.421875
vt 1.000000 0.000000
vt 0.000000 1.000000
vt 0.000000 0.000000
vt 1.000000 1.000000
vt 0.000000 0.799805
vt 0.799805 0.000000
vt 0.762695 0.307617
vt 1.000000 0.799805
vt 0.920898 0.307617
vt 0.799805 1.000000
vt 0.000000 0.000000
vt 0.000000 1.000000
vt 0.000000 0.199951
vt 0.799805 1.000000
vt 0.762695 0.000000
vt 1.000000 0.000000
vt 0.000000 1.000000
vt 0.000000 0.000000
vt 1.000000 1.000000
vt 1.000000 0.078918
vt 0.920898 0.000000
vt 0.799805 0.000000
vt 0.000000 1.000000
vt 1.000000 0.000000
vt 0.000000 0.000000
vt 0.000000 1.000000
vt 0.500000 1.000000
vt 0.000000 0.500000
vt 0.578613 1.000000
vt 0.500000 0.000000
vt 0.000000 0.578613
vt 0.420898 1.000000
vt 0.000000 0.000000
vt 1.000000 1.000000
vt 1.000000 0.000000
vt 0.000000 1.000000
vt 0.576660 0.468750
vt 0.000000 0.000000
vt 0.576660 0.343750
vt 0.000000 0.250000
vt 1.000000 0.000000
vt 0.691895 0.343750
vt 1.000000 0.250000
vt 1.000000 1.000000
vt 0.250000 1.000000
vt 1.000000 0.000000
vt 0.000000 1.000000
vt 0.000000 0.083313
vt 0.468750 1.000000
vt 1.000000 0.468750
vt 0.468750 0.631348
vt 1.000000 0.083313
vt 0.916504 0.000000
vt 1.000000 1.000000
vt 0.000000 0.000000
vt 0.000000 0.000000
vt 0.691895 0.281250
vt 0.422607 0.500000
vt 1.000000 0.989746
vt 0.422607 0.499756
vt 0.418701 0.512695
vt 1.000000 0.250000
vt 0.000000 0.499756
vt 0.845703 0.281250
vt 1.000000 0.000000
vt 0.428467 0.250000
vt 0.000000 1.000000
vt 1.000000 0.000000
vt 0.000000 1.000000
vt 1.000000 1.000000
vt 0.428467 0.499756
vt 0.250000 1.000000
vt 0.000000 0.000000
vt 1.000000 0.250000
vt 1.000000 1.000000
vt 0.250000 1.000000
vt 0.249878 0.000000
vt 0.000000 1.000000
vt 0.000000 0.250000
vt 1.000000 0.000000
vt 0.000000 1.000000
vt 1.000000 0.750000
vt 0.218750 0.631348
vt 0.750000 1.000000
vt 1.000000 0.000000
vt 0.000000 1.000000
vt 1.000000 1.000000
vt 0.000000 0.000000
vt 1.000000 0.250000
vt 1.000000 1.000000
vt 0.250000 1.000000
vt 1.000000 0.083313
vt 0.916504 0.000000
vt 0.577637 0.342041
vt 0.000000 0.071411
vt 0.071411 0.000000
vt 0.691895 0.234253
vt 0.000000 1.000000
vt 1.000000 0.000000
vt 0.000000 0.000000
vt 0.000000 1.000000
vt 1.000000 0.000000
vt 0.428467 0.249878
vt 1.000000 0.000000
vt 0.000000 1.000000
vt 0.250000 1.000000
vt 1.000000 1.000000
vt 1.000000 0.250000
vt 1.000000 0.249878
vt 0.071411 0.500000
vt 0.845703 0.234375
vt 1.000000 0.875000
vt 0.249878 1.000000
vt 0.428467 0.500000
vt 0.250000 0.666504
vt 0.828125 0.000000
vt 1.000000 0.171875
vt 0.250000 0.000000
vt 0.000000 0.250000
vt 0.845703 0.171875
vt 0.250000 0.000000
vt 0.000000 0.250000
vt 0.000000 0.875000
s 0
usemtl [SpatialMaterial:32441].004
f 4/9/2 9/20/2 16/38/2
f 6/15/7 5/11/7 4/9/14
f 18/44/6 9/20/6 19/46/6
f 56/134/8 9/21/8 12/28/8
f 1/3/3 4/9/3 40/94/3
f 4/9/2 8/19/2 9/20/2
f 5/11/7 29/66/7 7/17/7
f 7/17/7 8/18/7 5/11/7
f 8/18/7 4/9/39 5/11/7
f 4/9/40 3/7/41 6/15/7
f 3/7/42 30/69/43 6/15/7
f 18/44/6 22/52/6 17/40/6
f 17/40/6 16/39/6 18/44/6
f 16/39/6 9/20/6 18/44/6
f 9/20/6 11/25/6 19/46/6
f 11/25/6 25/58/6 19/46/6
f 12/28/8 13/31/8 56/134/8
f 56/134/8 62/148/8 65/157/8
f 65/157/8 64/154/8 11/25/8
f 9/21/8 8/19/8 10/24/8
f 8/19/8 7/17/8 10/24/8
f 7/17/8 15/37/8 10/24/8
f 65/157/8 11/25/8 9/21/8
f 56/134/8 65/157/8 9/21/8
f 9/21/8 10/24/8 12/28/8
f 1/3/3 2/6/3 3/8/3
f 4/9/3 16/39/3 32/74/3
f 16/39/3 17/41/3 32/74/3
f 17/41/3 37/87/3 32/74/3
f 33/76/3 34/79/3 40/94/3
f 4/9/3 32/74/3 33/76/3
f 1/3/3 3/8/3 4/9/3
f 40/94/3 43/101/3 1/3/3
f 4/9/3 33/76/3 40/94/3
usemtl [SpatialMaterial:1470914]
f 13/29/1 57/135/1 56/132/1
f 19/45/2 20/48/2 18/42/2
f 66/158/3 59/138/3 58/137/3
f 1/2/4 41/96/5 49/115/1
f 2/4/6 1/1/6 49/116/6
f 10/22/6 55/129/6 53/124/6
f 64/152/7 65/155/7 66/159/7
f 5/10/8 28/63/8 29/64/8
f 55/130/9 61/143/10 54/128/11
f 32/72/12 36/84/1 33/75/13
f 6/14/3 31/70/3 26/60/3
f 17/41/1 22/50/1 14/34/1
f 21/49/3 18/43/3 20/48/3
f 13/30/7 52/122/7 54/126/7
f 23/54/8 25/59/8 24/55/8
f 26/61/15 5/12/2 6/13/16
f 34/77/6 36/83/6 35/80/6
f 44/102/1 50/118/1 47/110/1
f 45/106/17 34/78/18 35/81/12
f 41/95/6 46/108/6 42/98/6
f 66/160/1 62/146/1 63/149/1
f 59/139/1 60/142/1 58/137/1
f 45/105/6 48/111/6 44/103/6
f 46/109/8 47/110/8 49/114/8
f 52/123/1 10/23/1 53/124/1
f 59/140/7 62/147/7 56/133/7
f 38/89/7 32/73/7 37/85/7
f 38/90/3 48/113/19 35/82/3
f 13/29/1 54/127/1 57/135/1
f 19/45/2 23/53/2 20/48/2
f 66/158/3 63/150/3 59/138/3
f 43/99/12 41/96/20 1/2/21
f 41/96/22 46/107/1 49/115/1
f 49/116/6 47/110/6 50/117/6
f 50/117/6 51/119/6 49/116/6
f 51/119/6 2/4/6 49/116/6
f 10/22/6 15/35/6 55/129/6
f 66/159/7 58/137/23 60/141/24
f 60/141/25 14/32/7 66/159/7
f 14/32/7 64/152/7 66/159/7
f 5/10/8 27/62/8 28/63/8
f 55/130/26 14/33/27 61/143/28
f 14/33/29 60/142/29 61/143/30
f 61/143/29 57/135/29 54/128/31
f 52/123/29 53/125/32 54/128/29
f 53/125/33 55/130/34 54/128/32
f 32/72/35 39/91/1 36/84/1
f 6/14/3 30/67/3 31/70/3
f 15/36/1 7/16/1 51/120/1
f 7/16/1 29/65/1 51/120/1
f 29/65/1 28/63/1 31/71/1
f 30/68/36 3/7/1 51/120/1
f 3/7/1 2/5/1 51/120/1
f 29/65/1 31/71/1 30/68/37
f 55/131/1 15/36/1 51/120/1
f 11/25/1 64/153/1 25/57/1
f 64/153/1 14/34/1 22/50/1
f 25/57/1 64/153/1 22/50/1
f 14/34/1 55/131/1 38/88/1
f 29/65/1 30/68/38 51/120/1
f 55/131/1 51/120/1 38/88/1
f 38/88/1 37/86/1 17/41/1
f 24/56/1 25/57/1 22/50/1
f 22/50/1 21/49/1 24/56/1
f 38/88/1 17/41/1 14/34/1
f 21/49/3 22/51/3 18/43/3
f 13/30/7 12/26/7 52/122/7
f 23/54/8 19/47/8 25/59/8
f 26/61/44 27/62/2 5/12/2
f 34/77/6 33/75/6 36/83/6
f 44/102/1 48/112/1 50/118/1
f 45/106/45 40/93/46 34/78/12
f 66/160/1 65/156/1 62/146/1
f 59/139/1 61/144/1 60/142/1
f 44/103/6 46/108/6 41/97/6
f 41/97/6 43/100/6 44/103/6
f 43/100/6 40/93/6 44/103/6
f 40/93/6 45/105/6 44/103/6
f 46/109/8 44/104/8 47/110/8
f 52/123/1 12/27/1 10/23/1
f 59/140/7 63/151/7 62/147/7
f 56/133/7 57/136/7 59/140/7
f 57/136/7 61/145/7 59/140/7
f 38/89/7 39/91/7 32/73/7
f 38/90/3 51/121/47 48/113/48
f 51/121/49 50/118/49 48/113/50
f 48/113/49 45/106/49 35/82/3
f 36/84/3 39/92/51 35/82/3
f 39/92/52 38/90/3 35/82/3
